  0
SECTION
  2
HEADER
  9
$ACADVER
  1
AC1009
  9
$EXTMIN
 10
0.0
 20
0.0
 30
0.0
  9
$EXTMAX
 10
1000.0
 20
1000.0
 30
0.0
  9
$FILLMODE
 70
 0
  9
$SPLFRAME
 70
 1
  0
ENDSEC
  0
SECTION
  2
TABLES
  0
TABLE
  2
LAYER
 70
1
  0
LAYER
  2
0
 70
     0
 62
     7
  6
CONTINUOUS
  0
ENDTAB
  0
ENDSEC
  0
SECTION
  2
ENTITIES
  0
LINE
  8
0
 62
     0
 10
141.971
 20
95.3424
 30
0.0
 11
142.048
 21
95.3396
 31
0.0
  0
LINE
  8
0
 62
     0
 10
142.048
 20
95.3396
 30
0.0
 11
142.127
 21
95.3311
 31
0.0
  0
LINE
  8
0
 62
     0
 10
142.127
 20
95.3311
 30
0.0
 11
142.204
 21
95.3163
 31
0.0
  0
LINE
  8
0
 62
     0
 10
142.204
 20
95.3163
 30
0.0
 11
142.28
 21
95.2941
 31
0.0
  0
LINE
  8
0
 62
     0
 10
142.28
 20
95.2941
 30
0.0
 11
142.353
 21
95.2666
 31
0.0
  0
LINE
  8
0
 62
     0
 10
142.353
 20
95.2666
 30
0.0
 11
142.425
 21
95.2348
 31
0.0
  0
LINE
  8
0
 62
     0
 10
142.425
 20
95.2348
 30
0.0
 11
142.493
 21
95.1964
 31
0.0
  0
LINE
  8
0
 62
     0
 10
142.493
 20
95.1964
 30
0.0
 11
142.558
 21
95.1523
 31
0.0
  0
LINE
  8
0
 62
     0
 10
142.558
 20
95.1523
 30
0.0
 11
142.62
 21
95.1039
 31
0.0
  0
LINE
  8
0
 62
     0
 10
142.62
 20
95.1039
 30
0.0
 11
142.678
 21
95.0503
 31
0.0
  0
LINE
  8
0
 62
     0
 10
142.678
 20
95.0503
 30
0.0
 11
142.73
 21
94.9925
 31
0.0
  0
LINE
  8
0
 62
     0
 10
142.73
 20
94.9925
 30
0.0
 11
142.78
 21
94.9304
 31
0.0
  0
LINE
  8
0
 62
     0
 10
142.78
 20
94.9304
 30
0.0
 11
142.823
 21
94.8655
 31
0.0
  0
LINE
  8
0
 62
     0
 10
142.823
 20
94.8655
 30
0.0
 11
142.861
 21
94.7967
 31
0.0
  0
LINE
  8
0
 62
     0
 10
142.861
 20
94.7967
 30
0.0
 11
142.894
 21
94.7265
 31
0.0
  0
LINE
  8
0
 62
     0
 10
142.894
 20
94.7265
 30
0.0
 11
142.922
 21
94.6534
 31
0.0
  0
LINE
  8
0
 62
     0
 10
142.922
 20
94.6534
 30
0.0
 11
142.942
 21
94.5762
 31
0.0
  0
LINE
  8
0
 62
     0
 10
142.942
 20
94.5762
 30
0.0
 11
142.958
 21
94.5003
 31
0.0
  0
LINE
  8
0
 62
     0
 10
142.958
 20
94.5003
 30
0.0
 11
142.967
 21
94.4217
 31
0.0
  0
LINE
  8
0
 62
     0
 10
142.967
 20
94.4217
 30
0.0
 11
142.97
 21
94.3434
 31
0.0
  0
LINE
  8
0
 62
     0
 10
142.97
 20
94.3434
 30
0.0
 11
142.97
 21
1.09279
 31
0.0
  0
LINE
  8
0
 62
     0
 10
142.97
 20
1.09279
 30
0.0
 11
142.967
 21
1.01424
 31
0.0
  0
LINE
  8
0
 62
     0
 10
142.967
 20
1.01424
 30
0.0
 11
142.958
 21
0.935687
 31
0.0
  0
LINE
  8
0
 62
     0
 10
142.958
 20
0.935687
 30
0.0
 11
142.942
 21
0.858516
 31
0.0
  0
LINE
  8
0
 62
     0
 10
142.942
 20
0.858516
 30
0.0
 11
142.922
 21
0.782726
 31
0.0
  0
LINE
  8
0
 62
     0
 10
142.922
 20
0.782726
 30
0.0
 11
142.894
 21
0.70969
 31
0.0
  0
LINE
  8
0
 62
     0
 10
142.894
 20
0.70969
 30
0.0
 11
142.861
 21
0.63803
 31
0.0
  0
LINE
  8
0
 62
     0
 10
142.861
 20
0.63803
 30
0.0
 11
142.823
 21
0.569129
 31
0.0
  0
LINE
  8
0
 62
     0
 10
142.823
 20
0.569129
 30
0.0
 11
142.78
 21
0.504363
 31
0.0
  0
LINE
  8
0
 62
     0
 10
142.78
 20
0.504363
 30
0.0
 11
142.73
 21
0.442352
 31
0.0
  0
LINE
  8
0
 62
     0
 10
142.73
 20
0.442352
 30
0.0
 11
142.678
 21
0.384471
 31
0.0
  0
LINE
  8
0
 62
     0
 10
142.678
 20
0.384471
 30
0.0
 11
142.62
 21
0.332107
 31
0.0
  0
LINE
  8
0
 62
     0
 10
142.62
 20
0.332107
 30
0.0
 11
142.558
 21
0.282498
 31
0.0
  0
LINE
  8
0
 62
     0
 10
142.558
 20
0.282498
 30
0.0
 11
142.493
 21
0.239779
 31
0.0
  0
LINE
  8
0
 62
     0
 10
142.493
 20
0.239779
 30
0.0
 11
142.425
 21
0.201194
 31
0.0
  0
LINE
  8
0
 62
     0
 10
142.425
 20
0.201194
 30
0.0
 11
142.353
 21
0.168121
 31
0.0
  0
LINE
  8
0
 62
     0
 10
142.353
 20
0.168121
 30
0.0
 11
142.28
 21
0.14056
 31
0.0
  0
LINE
  8
0
 62
     0
 10
142.28
 20
0.14056
 30
0.0
 11
142.204
 21
0.119889
 31
0.0
  0
LINE
  8
0
 62
     0
 10
142.204
 20
0.119889
 30
0.0
 11
142.127
 21
0.104731
 31
0.0
  0
LINE
  8
0
 62
     0
 10
142.127
 20
0.104731
 30
0.0
 11
142.048
 21
0.0950846
 31
0.0
  0
LINE
  8
0
 62
     0
 10
142.048
 20
0.0950846
 30
0.0
 11
141.97
 21
0.0923286
 31
0.0
  0
LINE
  8
0
 62
     0
 10
141.97
 20
0.0923286
 30
0.0
 11
1.09416
 21
0.0923286
 31
0.0
  0
LINE
  8
0
 62
     0
 10
1.09416
 20
0.0923286
 30
0.0
 11
1.01562
 21
0.0950846
 31
0.0
  0
LINE
  8
0
 62
     0
 10
1.01562
 20
0.0950846
 30
0.0
 11
0.937066
 21
0.104731
 31
0.0
  0
LINE
  8
0
 62
     0
 10
0.937066
 20
0.104731
 30
0.0
 11
0.861275
 21
0.119889
 31
0.0
  0
LINE
  8
0
 62
     0
 10
0.861275
 20
0.119889
 30
0.0
 11
0.784105
 21
0.14056
 31
0.0
  0
LINE
  8
0
 62
     0
 10
0.784105
 20
0.14056
 30
0.0
 11
0.711069
 21
0.168121
 31
0.0
  0
LINE
  8
0
 62
     0
 10
0.711069
 20
0.168121
 30
0.0
 11
0.640789
 21
0.201194
 31
0.0
  0
LINE
  8
0
 62
     0
 10
0.640789
 20
0.201194
 30
0.0
 11
0.571885
 21
0.239779
 31
0.0
  0
LINE
  8
0
 62
     0
 10
0.571885
 20
0.239779
 30
0.0
 11
0.507118
 21
0.282498
 31
0.0
  0
LINE
  8
0
 62
     0
 10
0.507118
 20
0.282498
 30
0.0
 11
0.445107
 21
0.332107
 31
0.0
  0
LINE
  8
0
 62
     0
 10
0.445107
 20
0.332107
 30
0.0
 11
0.38723
 21
0.384471
 31
0.0
  0
LINE
  8
0
 62
     0
 10
0.38723
 20
0.384471
 30
0.0
 11
0.333485
 21
0.442352
 31
0.0
  0
LINE
  8
0
 62
     0
 10
0.333485
 20
0.442352
 30
0.0
 11
0.285254
 21
0.504363
 31
0.0
  0
LINE
  8
0
 62
     0
 10
0.285254
 20
0.504363
 30
0.0
 11
0.241157
 21
0.569129
 31
0.0
  0
LINE
  8
0
 62
     0
 10
0.241157
 20
0.569129
 30
0.0
 11
0.202572
 21
0.63803
 31
0.0
  0
LINE
  8
0
 62
     0
 10
0.202572
 20
0.63803
 30
0.0
 11
0.170877
 21
0.70969
 31
0.0
  0
LINE
  8
0
 62
     0
 10
0.170877
 20
0.70969
 30
0.0
 11
0.143316
 21
0.782726
 31
0.0
  0
LINE
  8
0
 62
     0
 10
0.143316
 20
0.782726
 30
0.0
 11
0.121267
 21
0.858516
 31
0.0
  0
LINE
  8
0
 62
     0
 10
0.121267
 20
0.858516
 30
0.0
 11
0.106109
 21
0.935687
 31
0.0
  0
LINE
  8
0
 62
     0
 10
0.106109
 20
0.935687
 30
0.0
 11
0.0978408
 21
1.01424
 31
0.0
  0
LINE
  8
0
 62
     0
 10
0.0978408
 20
1.01424
 30
0.0
 11
0.0937066
 21
1.09279
 31
0.0
  0
LINE
  8
0
 62
     0
 10
0.0937066
 20
1.09279
 30
0.0
 11
0.0950846
 21
94.3434
 31
0.0
  0
LINE
  8
0
 62
     0
 10
0.0950846
 20
94.3434
 30
0.0
 11
0.0978408
 21
94.4217
 31
0.0
  0
LINE
  8
0
 62
     0
 10
0.0978408
 20
94.4217
 30
0.0
 11
0.106109
 21
94.5003
 31
0.0
  0
LINE
  8
0
 62
     0
 10
0.106109
 20
94.5003
 30
0.0
 11
0.121267
 21
94.5762
 31
0.0
  0
LINE
  8
0
 62
     0
 10
0.121267
 20
94.5762
 30
0.0
 11
0.143316
 21
94.6534
 31
0.0
  0
LINE
  8
0
 62
     0
 10
0.143316
 20
94.6534
 30
0.0
 11
0.170877
 21
94.7265
 31
0.0
  0
LINE
  8
0
 62
     0
 10
0.170877
 20
94.7265
 30
0.0
 11
0.202572
 21
94.7967
 31
0.0
  0
LINE
  8
0
 62
     0
 10
0.202572
 20
94.7967
 30
0.0
 11
0.241157
 21
94.8655
 31
0.0
  0
LINE
  8
0
 62
     0
 10
0.241157
 20
94.8655
 30
0.0
 11
0.285254
 21
94.9304
 31
0.0
  0
LINE
  8
0
 62
     0
 10
0.285254
 20
94.9304
 30
0.0
 11
0.333485
 21
94.9925
 31
0.0
  0
LINE
  8
0
 62
     0
 10
0.333485
 20
94.9925
 30
0.0
 11
0.38723
 21
95.0503
 31
0.0
  0
LINE
  8
0
 62
     0
 10
0.38723
 20
95.0503
 30
0.0
 11
0.445107
 21
95.1039
 31
0.0
  0
LINE
  8
0
 62
     0
 10
0.445107
 20
95.1039
 30
0.0
 11
0.507118
 21
95.1523
 31
0.0
  0
LINE
  8
0
 62
     0
 10
0.507118
 20
95.1523
 30
0.0
 11
0.571885
 21
95.1964
 31
0.0
  0
LINE
  8
0
 62
     0
 10
0.571885
 20
95.1964
 30
0.0
 11
0.640789
 21
95.2348
 31
0.0
  0
LINE
  8
0
 62
     0
 10
0.640789
 20
95.2348
 30
0.0
 11
0.711069
 21
95.2666
 31
0.0
  0
LINE
  8
0
 62
     0
 10
0.711069
 20
95.2666
 30
0.0
 11
0.784105
 21
95.2941
 31
0.0
  0
LINE
  8
0
 62
     0
 10
0.784105
 20
95.2941
 30
0.0
 11
0.861275
 21
95.3163
 31
0.0
  0
LINE
  8
0
 62
     0
 10
0.861275
 20
95.3163
 30
0.0
 11
0.937066
 21
95.3311
 31
0.0
  0
LINE
  8
0
 62
     0
 10
0.937066
 20
95.3311
 30
0.0
 11
1.01562
 21
95.3396
 31
0.0
  0
LINE
  8
0
 62
     0
 10
1.01562
 20
95.3396
 30
0.0
 11
1.09416
 21
95.3438
 31
0.0
  0
LINE
  8
0
 62
     0
 10
1.09416
 20
95.3438
 30
0.0
 11
141.971
 21
95.3424
 31
0.0
  0
LINE
  8
0
 62
     0
 10
7.38216
 20
16.6178
 30
0.0
 11
21.3817
 21
16.6178
 31
0.0
  0
LINE
  8
0
 62
     0
 10
21.3817
 20
16.6178
 30
0.0
 11
21.3817
 21
2.61827
 31
0.0
  0
LINE
  8
0
 62
     0
 10
21.3817
 20
2.61827
 30
0.0
 11
7.38216
 21
2.61827
 31
0.0
  0
LINE
  8
0
 62
     0
 10
7.38216
 20
2.61827
 30
0.0
 11
7.38216
 21
16.6178
 31
0.0
  0
LINE
  8
0
 62
     0
 10
31.1947
 20
16.6178
 30
0.0
 11
45.194
 21
16.6178
 31
0.0
  0
LINE
  8
0
 62
     0
 10
45.194
 20
16.6178
 30
0.0
 11
45.194
 21
2.61827
 31
0.0
  0
LINE
  8
0
 62
     0
 10
45.194
 20
2.61827
 30
0.0
 11
31.1947
 21
2.61827
 31
0.0
  0
LINE
  8
0
 62
     0
 10
31.1947
 20
2.61827
 30
0.0
 11
31.1947
 21
16.6178
 31
0.0
  0
LINE
  8
0
 62
     0
 10
50.2447
 20
16.6178
 30
0.0
 11
64.244
 21
16.6178
 31
0.0
  0
LINE
  8
0
 62
     0
 10
64.244
 20
16.6178
 30
0.0
 11
64.244
 21
2.61827
 31
0.0
  0
LINE
  8
0
 62
     0
 10
64.244
 20
2.61827
 30
0.0
 11
50.2447
 21
2.61827
 31
0.0
  0
LINE
  8
0
 62
     0
 10
50.2447
 20
2.61827
 30
0.0
 11
50.2447
 21
16.6178
 31
0.0
  0
LINE
  8
0
 62
     0
 10
69.2947
 20
16.6178
 30
0.0
 11
83.294
 21
16.6178
 31
0.0
  0
LINE
  8
0
 62
     0
 10
83.294
 20
16.6178
 30
0.0
 11
83.294
 21
2.61827
 31
0.0
  0
LINE
  8
0
 62
     0
 10
83.294
 20
2.61827
 30
0.0
 11
69.2947
 21
2.61827
 31
0.0
  0
LINE
  8
0
 62
     0
 10
69.2947
 20
2.61827
 30
0.0
 11
69.2947
 21
16.6178
 31
0.0
  0
LINE
  8
0
 62
     0
 10
88.3447
 20
16.6178
 30
0.0
 11
102.344
 21
16.6178
 31
0.0
  0
LINE
  8
0
 62
     0
 10
102.344
 20
16.6178
 30
0.0
 11
102.344
 21
2.61827
 31
0.0
  0
LINE
  8
0
 62
     0
 10
102.344
 20
2.61827
 30
0.0
 11
88.3447
 21
2.61827
 31
0.0
  0
LINE
  8
0
 62
     0
 10
88.3447
 20
2.61827
 30
0.0
 11
88.3447
 21
16.6178
 31
0.0
  0
LINE
  8
0
 62
     0
 10
116.918
 20
16.6178
 30
0.0
 11
130.919
 21
16.6178
 31
0.0
  0
LINE
  8
0
 62
     0
 10
130.919
 20
16.6178
 30
0.0
 11
130.919
 21
2.61827
 31
0.0
  0
LINE
  8
0
 62
     0
 10
130.919
 20
2.61827
 30
0.0
 11
116.918
 21
2.61827
 31
0.0
  0
LINE
  8
0
 62
     0
 10
116.918
 20
2.61827
 30
0.0
 11
116.918
 21
16.6178
 31
0.0
  0
LINE
  8
0
 62
     0
 10
7.38216
 20
35.6676
 30
0.0
 11
21.3817
 21
35.6676
 31
0.0
  0
LINE
  8
0
 62
     0
 10
21.3817
 20
35.6676
 30
0.0
 11
21.3817
 21
21.6683
 31
0.0
  0
LINE
  8
0
 62
     0
 10
21.3817
 20
21.6683
 30
0.0
 11
7.38216
 21
21.6683
 31
0.0
  0
LINE
  8
0
 62
     0
 10
7.38216
 20
21.6683
 30
0.0
 11
7.38216
 21
35.6676
 31
0.0
  0
LINE
  8
0
 62
     0
 10
31.1947
 20
35.6676
 30
0.0
 11
45.194
 21
35.6676
 31
0.0
  0
LINE
  8
0
 62
     0
 10
45.194
 20
35.6676
 30
0.0
 11
45.194
 21
21.6683
 31
0.0
  0
LINE
  8
0
 62
     0
 10
45.194
 20
21.6683
 30
0.0
 11
31.1947
 21
21.6683
 31
0.0
  0
LINE
  8
0
 62
     0
 10
31.1947
 20
21.6683
 30
0.0
 11
31.1947
 21
35.6676
 31
0.0
  0
LINE
  8
0
 62
     0
 10
50.2447
 20
35.6676
 30
0.0
 11
64.244
 21
35.6676
 31
0.0
  0
LINE
  8
0
 62
     0
 10
64.244
 20
35.6676
 30
0.0
 11
64.244
 21
21.6683
 31
0.0
  0
LINE
  8
0
 62
     0
 10
64.244
 20
21.6683
 30
0.0
 11
50.2447
 21
21.6683
 31
0.0
  0
LINE
  8
0
 62
     0
 10
50.2447
 20
21.6683
 30
0.0
 11
50.2447
 21
35.6676
 31
0.0
  0
LINE
  8
0
 62
     0
 10
69.2947
 20
35.6676
 30
0.0
 11
83.294
 21
35.6676
 31
0.0
  0
LINE
  8
0
 62
     0
 10
83.294
 20
35.6676
 30
0.0
 11
83.294
 21
21.6683
 31
0.0
  0
LINE
  8
0
 62
     0
 10
83.294
 20
21.6683
 30
0.0
 11
69.2947
 21
21.6683
 31
0.0
  0
LINE
  8
0
 62
     0
 10
69.2947
 20
21.6683
 30
0.0
 11
69.2947
 21
35.6676
 31
0.0
  0
LINE
  8
0
 62
     0
 10
88.3447
 20
35.6676
 30
0.0
 11
102.344
 21
35.6676
 31
0.0
  0
LINE
  8
0
 62
     0
 10
102.344
 20
35.6676
 30
0.0
 11
102.344
 21
21.6683
 31
0.0
  0
LINE
  8
0
 62
     0
 10
102.344
 20
21.6683
 30
0.0
 11
88.3447
 21
21.6683
 31
0.0
  0
LINE
  8
0
 62
     0
 10
88.3447
 20
21.6683
 30
0.0
 11
88.3447
 21
35.6676
 31
0.0
  0
LINE
  8
0
 62
     0
 10
107.395
 20
35.6676
 30
0.0
 11
121.394
 21
35.6676
 31
0.0
  0
LINE
  8
0
 62
     0
 10
121.394
 20
35.6676
 30
0.0
 11
121.394
 21
21.6683
 31
0.0
  0
LINE
  8
0
 62
     0
 10
121.394
 20
21.6683
 30
0.0
 11
107.395
 21
21.6683
 31
0.0
  0
LINE
  8
0
 62
     0
 10
107.395
 20
21.6683
 30
0.0
 11
107.395
 21
35.6676
 31
0.0
  0
LINE
  8
0
 62
     0
 10
126.445
 20
35.6676
 30
0.0
 11
140.444
 21
35.6676
 31
0.0
  0
LINE
  8
0
 62
     0
 10
140.444
 20
35.6676
 30
0.0
 11
140.444
 21
21.6683
 31
0.0
  0
LINE
  8
0
 62
     0
 10
140.444
 20
21.6683
 30
0.0
 11
126.445
 21
21.6683
 31
0.0
  0
LINE
  8
0
 62
     0
 10
126.445
 20
21.6683
 30
0.0
 11
126.445
 21
35.6676
 31
0.0
  0
LINE
  8
0
 62
     0
 10
7.38216
 20
54.7176
 30
0.0
 11
21.3817
 21
54.7176
 31
0.0
  0
LINE
  8
0
 62
     0
 10
21.3817
 20
54.7176
 30
0.0
 11
21.3817
 21
40.7183
 31
0.0
  0
LINE
  8
0
 62
     0
 10
21.3817
 20
40.7183
 30
0.0
 11
7.38216
 21
40.7183
 31
0.0
  0
LINE
  8
0
 62
     0
 10
7.38216
 20
40.7183
 30
0.0
 11
7.38216
 21
54.7176
 31
0.0
  0
LINE
  8
0
 62
     0
 10
31.1947
 20
54.7176
 30
0.0
 11
45.194
 21
54.7176
 31
0.0
  0
LINE
  8
0
 62
     0
 10
45.194
 20
54.7176
 30
0.0
 11
45.194
 21
40.7183
 31
0.0
  0
LINE
  8
0
 62
     0
 10
45.194
 20
40.7183
 30
0.0
 11
31.1947
 21
40.7183
 31
0.0
  0
LINE
  8
0
 62
     0
 10
31.1947
 20
40.7183
 30
0.0
 11
31.1947
 21
54.7176
 31
0.0
  0
LINE
  8
0
 62
     0
 10
50.2447
 20
54.7176
 30
0.0
 11
64.244
 21
54.7176
 31
0.0
  0
LINE
  8
0
 62
     0
 10
64.244
 20
54.7176
 30
0.0
 11
64.244
 21
40.7183
 31
0.0
  0
LINE
  8
0
 62
     0
 10
64.244
 20
40.7183
 30
0.0
 11
50.2447
 21
40.7183
 31
0.0
  0
LINE
  8
0
 62
     0
 10
50.2447
 20
40.7183
 30
0.0
 11
50.2447
 21
54.7176
 31
0.0
  0
LINE
  8
0
 62
     0
 10
69.2947
 20
54.7176
 30
0.0
 11
83.294
 21
54.7176
 31
0.0
  0
LINE
  8
0
 62
     0
 10
83.294
 20
54.7176
 30
0.0
 11
83.294
 21
40.7183
 31
0.0
  0
LINE
  8
0
 62
     0
 10
83.294
 20
40.7183
 30
0.0
 11
69.2947
 21
40.7183
 31
0.0
  0
LINE
  8
0
 62
     0
 10
69.2947
 20
40.7183
 30
0.0
 11
69.2947
 21
54.7176
 31
0.0
  0
LINE
  8
0
 62
     0
 10
88.3447
 20
54.7176
 30
0.0
 11
102.344
 21
54.7176
 31
0.0
  0
LINE
  8
0
 62
     0
 10
102.344
 20
54.7176
 30
0.0
 11
102.344
 21
40.7183
 31
0.0
  0
LINE
  8
0
 62
     0
 10
102.344
 20
40.7183
 30
0.0
 11
88.3447
 21
40.7183
 31
0.0
  0
LINE
  8
0
 62
     0
 10
88.3447
 20
40.7183
 30
0.0
 11
88.3447
 21
54.7176
 31
0.0
  0
LINE
  8
0
 62
     0
 10
107.395
 20
54.7176
 30
0.0
 11
121.394
 21
54.7176
 31
0.0
  0
LINE
  8
0
 62
     0
 10
121.394
 20
54.7176
 30
0.0
 11
121.394
 21
40.7183
 31
0.0
  0
LINE
  8
0
 62
     0
 10
121.394
 20
40.7183
 30
0.0
 11
107.395
 21
40.7183
 31
0.0
  0
LINE
  8
0
 62
     0
 10
107.395
 20
40.7183
 30
0.0
 11
107.395
 21
54.7176
 31
0.0
  0
LINE
  8
0
 62
     0
 10
126.445
 20
54.7176
 30
0.0
 11
140.444
 21
54.7176
 31
0.0
  0
LINE
  8
0
 62
     0
 10
140.444
 20
54.7176
 30
0.0
 11
140.444
 21
40.7183
 31
0.0
  0
LINE
  8
0
 62
     0
 10
140.444
 20
40.7183
 30
0.0
 11
126.445
 21
40.7183
 31
0.0
  0
LINE
  8
0
 62
     0
 10
126.445
 20
40.7183
 30
0.0
 11
126.445
 21
54.7176
 31
0.0
  0
LINE
  8
0
 62
     0
 10
7.38216
 20
73.7676
 30
0.0
 11
21.3817
 21
73.7676
 31
0.0
  0
LINE
  8
0
 62
     0
 10
21.3817
 20
73.7676
 30
0.0
 11
21.3817
 21
59.7683
 31
0.0
  0
LINE
  8
0
 62
     0
 10
21.3817
 20
59.7683
 30
0.0
 11
7.38216
 21
59.7683
 31
0.0
  0
LINE
  8
0
 62
     0
 10
7.38216
 20
59.7683
 30
0.0
 11
7.38216
 21
73.7676
 31
0.0
  0
LINE
  8
0
 62
     0
 10
31.1947
 20
73.7676
 30
0.0
 11
45.194
 21
73.7676
 31
0.0
  0
LINE
  8
0
 62
     0
 10
45.194
 20
73.7676
 30
0.0
 11
45.194
 21
59.7683
 31
0.0
  0
LINE
  8
0
 62
     0
 10
45.194
 20
59.7683
 30
0.0
 11
31.1947
 21
59.7683
 31
0.0
  0
LINE
  8
0
 62
     0
 10
31.1947
 20
59.7683
 30
0.0
 11
31.1947
 21
73.7676
 31
0.0
  0
LINE
  8
0
 62
     0
 10
50.2447
 20
73.7676
 30
0.0
 11
64.244
 21
73.7676
 31
0.0
  0
LINE
  8
0
 62
     0
 10
64.244
 20
73.7676
 30
0.0
 11
64.244
 21
59.7683
 31
0.0
  0
LINE
  8
0
 62
     0
 10
64.244
 20
59.7683
 30
0.0
 11
50.2447
 21
59.7683
 31
0.0
  0
LINE
  8
0
 62
     0
 10
50.2447
 20
59.7683
 30
0.0
 11
50.2447
 21
73.7676
 31
0.0
  0
LINE
  8
0
 62
     0
 10
69.2947
 20
73.7676
 30
0.0
 11
83.294
 21
73.7676
 31
0.0
  0
LINE
  8
0
 62
     0
 10
83.294
 20
73.7676
 30
0.0
 11
83.294
 21
59.7683
 31
0.0
  0
LINE
  8
0
 62
     0
 10
83.294
 20
59.7683
 30
0.0
 11
69.2947
 21
59.7683
 31
0.0
  0
LINE
  8
0
 62
     0
 10
69.2947
 20
59.7683
 30
0.0
 11
69.2947
 21
73.7676
 31
0.0
  0
LINE
  8
0
 62
     0
 10
88.3447
 20
73.7676
 30
0.0
 11
102.344
 21
73.7676
 31
0.0
  0
LINE
  8
0
 62
     0
 10
102.344
 20
73.7676
 30
0.0
 11
102.344
 21
59.7683
 31
0.0
  0
LINE
  8
0
 62
     0
 10
102.344
 20
59.7683
 30
0.0
 11
88.3447
 21
59.7683
 31
0.0
  0
LINE
  8
0
 62
     0
 10
88.3447
 20
59.7683
 30
0.0
 11
88.3447
 21
73.7676
 31
0.0
  0
LINE
  8
0
 62
     0
 10
107.395
 20
73.7676
 30
0.0
 11
121.394
 21
73.7676
 31
0.0
  0
LINE
  8
0
 62
     0
 10
121.394
 20
73.7676
 30
0.0
 11
121.394
 21
59.7683
 31
0.0
  0
LINE
  8
0
 62
     0
 10
121.394
 20
59.7683
 30
0.0
 11
107.395
 21
59.7683
 31
0.0
  0
LINE
  8
0
 62
     0
 10
107.395
 20
59.7683
 30
0.0
 11
107.395
 21
73.7676
 31
0.0
  0
LINE
  8
0
 62
     0
 10
126.445
 20
73.7676
 30
0.0
 11
140.444
 21
73.7676
 31
0.0
  0
LINE
  8
0
 62
     0
 10
140.444
 20
73.7676
 30
0.0
 11
140.444
 21
59.7683
 31
0.0
  0
LINE
  8
0
 62
     0
 10
140.444
 20
59.7683
 30
0.0
 11
126.445
 21
59.7683
 31
0.0
  0
LINE
  8
0
 62
     0
 10
126.445
 20
59.7683
 30
0.0
 11
126.445
 21
73.7676
 31
0.0
  0
LINE
  8
0
 62
     0
 10
7.38216
 20
92.8176
 30
0.0
 11
21.3817
 21
92.8176
 31
0.0
  0
LINE
  8
0
 62
     0
 10
21.3817
 20
92.8176
 30
0.0
 11
21.3817
 21
78.8183
 31
0.0
  0
LINE
  8
0
 62
     0
 10
21.3817
 20
78.8183
 30
0.0
 11
7.38216
 21
78.8183
 31
0.0
  0
LINE
  8
0
 62
     0
 10
7.38216
 20
78.8183
 30
0.0
 11
7.38216
 21
92.8176
 31
0.0
  0
LINE
  8
0
 62
     0
 10
31.1947
 20
92.8176
 30
0.0
 11
45.194
 21
92.8176
 31
0.0
  0
LINE
  8
0
 62
     0
 10
45.194
 20
92.8176
 30
0.0
 11
45.194
 21
78.8183
 31
0.0
  0
LINE
  8
0
 62
     0
 10
45.194
 20
78.8183
 30
0.0
 11
31.1947
 21
78.8183
 31
0.0
  0
LINE
  8
0
 62
     0
 10
31.1947
 20
78.8183
 30
0.0
 11
31.1947
 21
92.8176
 31
0.0
  0
LINE
  8
0
 62
     0
 10
50.2447
 20
92.8176
 30
0.0
 11
64.244
 21
92.8176
 31
0.0
  0
LINE
  8
0
 62
     0
 10
64.244
 20
92.8176
 30
0.0
 11
64.244
 21
78.8183
 31
0.0
  0
LINE
  8
0
 62
     0
 10
64.244
 20
78.8183
 30
0.0
 11
50.2447
 21
78.8183
 31
0.0
  0
LINE
  8
0
 62
     0
 10
50.2447
 20
78.8183
 30
0.0
 11
50.2447
 21
92.8176
 31
0.0
  0
LINE
  8
0
 62
     0
 10
69.2947
 20
92.8176
 30
0.0
 11
83.294
 21
92.8176
 31
0.0
  0
LINE
  8
0
 62
     0
 10
83.294
 20
92.8176
 30
0.0
 11
83.294
 21
78.8183
 31
0.0
  0
LINE
  8
0
 62
     0
 10
83.294
 20
78.8183
 30
0.0
 11
69.2947
 21
78.8183
 31
0.0
  0
LINE
  8
0
 62
     0
 10
69.2947
 20
78.8183
 30
0.0
 11
69.2947
 21
92.8176
 31
0.0
  0
LINE
  8
0
 62
     0
 10
88.3447
 20
92.8176
 30
0.0
 11
102.344
 21
92.8176
 31
0.0
  0
LINE
  8
0
 62
     0
 10
102.344
 20
92.8176
 30
0.0
 11
102.344
 21
78.8183
 31
0.0
  0
LINE
  8
0
 62
     0
 10
102.344
 20
78.8183
 30
0.0
 11
88.3447
 21
78.8183
 31
0.0
  0
LINE
  8
0
 62
     0
 10
88.3447
 20
78.8183
 30
0.0
 11
88.3447
 21
92.8176
 31
0.0
  0
LINE
  8
0
 62
     0
 10
107.395
 20
92.8176
 30
0.0
 11
121.394
 21
92.8176
 31
0.0
  0
LINE
  8
0
 62
     0
 10
121.394
 20
92.8176
 30
0.0
 11
121.394
 21
78.8183
 31
0.0
  0
LINE
  8
0
 62
     0
 10
121.394
 20
78.8183
 30
0.0
 11
107.395
 21
78.8183
 31
0.0
  0
LINE
  8
0
 62
     0
 10
107.395
 20
78.8183
 30
0.0
 11
107.395
 21
92.8176
 31
0.0
  0
LINE
  8
0
 62
     0
 10
126.445
 20
92.8176
 30
0.0
 11
140.444
 21
92.8176
 31
0.0
  0
LINE
  8
0
 62
     0
 10
140.444
 20
92.8176
 30
0.0
 11
140.444
 21
78.8183
 31
0.0
  0
LINE
  8
0
 62
     0
 10
140.444
 20
78.8183
 30
0.0
 11
126.445
 21
78.8183
 31
0.0
  0
LINE
  8
0
 62
     0
 10
126.445
 20
78.8183
 30
0.0
 11
126.445
 21
92.8176
 31
0.0
  0
ENDSEC
  0
EOF
