  0
SECTION
  2
HEADER
  9
$ACADVER
  1
AC1009
  9
$EXTMIN
 10
0.0
 20
0.0
 30
0.0
  9
$EXTMAX
 10
1000.0
 20
1000.0
 30
0.0
  9
$FILLMODE
 70
 0
  9
$SPLFRAME
 70
 1
  0
ENDSEC
  0
SECTION
  2
TABLES
  0
TABLE
  2
LAYER
 70
1
  0
LAYER
  2
0
 70
     0
 62
     7
  6
CONTINUOUS
  0
ENDTAB
  0
ENDSEC
  0
SECTION
  2
ENTITIES
  0
LINE
  8
0
 62
     0
 10
151.496
 20
95.3424
 30
0.0
 11
151.573
 21
95.3396
 31
0.0
  0
LINE
  8
0
 62
     0
 10
151.573
 20
95.3396
 30
0.0
 11
151.652
 21
95.3311
 31
0.0
  0
LINE
  8
0
 62
     0
 10
151.652
 20
95.3311
 30
0.0
 11
151.729
 21
95.3163
 31
0.0
  0
LINE
  8
0
 62
     0
 10
151.729
 20
95.3163
 30
0.0
 11
151.805
 21
95.2941
 31
0.0
  0
LINE
  8
0
 62
     0
 10
151.805
 20
95.2941
 30
0.0
 11
151.878
 21
95.2666
 31
0.0
  0
LINE
  8
0
 62
     0
 10
151.878
 20
95.2666
 30
0.0
 11
151.95
 21
95.2348
 31
0.0
  0
LINE
  8
0
 62
     0
 10
151.95
 20
95.2348
 30
0.0
 11
152.018
 21
95.1964
 31
0.0
  0
LINE
  8
0
 62
     0
 10
152.018
 20
95.1964
 30
0.0
 11
152.083
 21
95.1523
 31
0.0
  0
LINE
  8
0
 62
     0
 10
152.083
 20
95.1523
 30
0.0
 11
152.145
 21
95.1039
 31
0.0
  0
LINE
  8
0
 62
     0
 10
152.145
 20
95.1039
 30
0.0
 11
152.203
 21
95.0503
 31
0.0
  0
LINE
  8
0
 62
     0
 10
152.203
 20
95.0503
 30
0.0
 11
152.255
 21
94.9925
 31
0.0
  0
LINE
  8
0
 62
     0
 10
152.255
 20
94.9925
 30
0.0
 11
152.305
 21
94.9304
 31
0.0
  0
LINE
  8
0
 62
     0
 10
152.305
 20
94.9304
 30
0.0
 11
152.348
 21
94.8655
 31
0.0
  0
LINE
  8
0
 62
     0
 10
152.348
 20
94.8655
 30
0.0
 11
152.386
 21
94.7967
 31
0.0
  0
LINE
  8
0
 62
     0
 10
152.386
 20
94.7967
 30
0.0
 11
152.419
 21
94.7265
 31
0.0
  0
LINE
  8
0
 62
     0
 10
152.419
 20
94.7265
 30
0.0
 11
152.447
 21
94.6534
 31
0.0
  0
LINE
  8
0
 62
     0
 10
152.447
 20
94.6534
 30
0.0
 11
152.467
 21
94.5762
 31
0.0
  0
LINE
  8
0
 62
     0
 10
152.467
 20
94.5762
 30
0.0
 11
152.483
 21
94.5003
 31
0.0
  0
LINE
  8
0
 62
     0
 10
152.483
 20
94.5003
 30
0.0
 11
152.492
 21
94.4217
 31
0.0
  0
LINE
  8
0
 62
     0
 10
152.492
 20
94.4217
 30
0.0
 11
152.495
 21
94.3434
 31
0.0
  0
LINE
  8
0
 62
     0
 10
152.495
 20
94.3434
 30
0.0
 11
152.495
 21
1.09279
 31
0.0
  0
LINE
  8
0
 62
     0
 10
152.495
 20
1.09279
 30
0.0
 11
152.492
 21
1.01424
 31
0.0
  0
LINE
  8
0
 62
     0
 10
152.492
 20
1.01424
 30
0.0
 11
152.483
 21
0.935687
 31
0.0
  0
LINE
  8
0
 62
     0
 10
152.483
 20
0.935687
 30
0.0
 11
152.467
 21
0.858516
 31
0.0
  0
LINE
  8
0
 62
     0
 10
152.467
 20
0.858516
 30
0.0
 11
152.447
 21
0.782726
 31
0.0
  0
LINE
  8
0
 62
     0
 10
152.447
 20
0.782726
 30
0.0
 11
152.419
 21
0.70969
 31
0.0
  0
LINE
  8
0
 62
     0
 10
152.419
 20
0.70969
 30
0.0
 11
152.386
 21
0.63803
 31
0.0
  0
LINE
  8
0
 62
     0
 10
152.386
 20
0.63803
 30
0.0
 11
152.348
 21
0.569129
 31
0.0
  0
LINE
  8
0
 62
     0
 10
152.348
 20
0.569129
 30
0.0
 11
152.305
 21
0.504363
 31
0.0
  0
LINE
  8
0
 62
     0
 10
152.305
 20
0.504363
 30
0.0
 11
152.255
 21
0.442352
 31
0.0
  0
LINE
  8
0
 62
     0
 10
152.255
 20
0.442352
 30
0.0
 11
152.203
 21
0.384471
 31
0.0
  0
LINE
  8
0
 62
     0
 10
152.203
 20
0.384471
 30
0.0
 11
152.145
 21
0.332107
 31
0.0
  0
LINE
  8
0
 62
     0
 10
152.145
 20
0.332107
 30
0.0
 11
152.083
 21
0.282498
 31
0.0
  0
LINE
  8
0
 62
     0
 10
152.083
 20
0.282498
 30
0.0
 11
152.018
 21
0.239779
 31
0.0
  0
LINE
  8
0
 62
     0
 10
152.018
 20
0.239779
 30
0.0
 11
151.95
 21
0.201194
 31
0.0
  0
LINE
  8
0
 62
     0
 10
151.95
 20
0.201194
 30
0.0
 11
151.878
 21
0.168121
 31
0.0
  0
LINE
  8
0
 62
     0
 10
151.878
 20
0.168121
 30
0.0
 11
151.805
 21
0.14056
 31
0.0
  0
LINE
  8
0
 62
     0
 10
151.805
 20
0.14056
 30
0.0
 11
151.729
 21
0.119889
 31
0.0
  0
LINE
  8
0
 62
     0
 10
151.729
 20
0.119889
 30
0.0
 11
151.652
 21
0.104731
 31
0.0
  0
LINE
  8
0
 62
     0
 10
151.652
 20
0.104731
 30
0.0
 11
151.573
 21
0.0950846
 31
0.0
  0
LINE
  8
0
 62
     0
 10
151.573
 20
0.0950846
 30
0.0
 11
151.495
 21
0.0923286
 31
0.0
  0
LINE
  8
0
 62
     0
 10
151.495
 20
0.0923286
 30
0.0
 11
1.09416
 21
0.0923286
 31
0.0
  0
LINE
  8
0
 62
     0
 10
1.09416
 20
0.0923286
 30
0.0
 11
1.01562
 21
0.0950846
 31
0.0
  0
LINE
  8
0
 62
     0
 10
1.01562
 20
0.0950846
 30
0.0
 11
0.937066
 21
0.104731
 31
0.0
  0
LINE
  8
0
 62
     0
 10
0.937066
 20
0.104731
 30
0.0
 11
0.861275
 21
0.119889
 31
0.0
  0
LINE
  8
0
 62
     0
 10
0.861275
 20
0.119889
 30
0.0
 11
0.784105
 21
0.14056
 31
0.0
  0
LINE
  8
0
 62
     0
 10
0.784105
 20
0.14056
 30
0.0
 11
0.711069
 21
0.168121
 31
0.0
  0
LINE
  8
0
 62
     0
 10
0.711069
 20
0.168121
 30
0.0
 11
0.640789
 21
0.201194
 31
0.0
  0
LINE
  8
0
 62
     0
 10
0.640789
 20
0.201194
 30
0.0
 11
0.571885
 21
0.239779
 31
0.0
  0
LINE
  8
0
 62
     0
 10
0.571885
 20
0.239779
 30
0.0
 11
0.507118
 21
0.282498
 31
0.0
  0
LINE
  8
0
 62
     0
 10
0.507118
 20
0.282498
 30
0.0
 11
0.445107
 21
0.332107
 31
0.0
  0
LINE
  8
0
 62
     0
 10
0.445107
 20
0.332107
 30
0.0
 11
0.38723
 21
0.384471
 31
0.0
  0
LINE
  8
0
 62
     0
 10
0.38723
 20
0.384471
 30
0.0
 11
0.333485
 21
0.442352
 31
0.0
  0
LINE
  8
0
 62
     0
 10
0.333485
 20
0.442352
 30
0.0
 11
0.285254
 21
0.504363
 31
0.0
  0
LINE
  8
0
 62
     0
 10
0.285254
 20
0.504363
 30
0.0
 11
0.241157
 21
0.569129
 31
0.0
  0
LINE
  8
0
 62
     0
 10
0.241157
 20
0.569129
 30
0.0
 11
0.202572
 21
0.63803
 31
0.0
  0
LINE
  8
0
 62
     0
 10
0.202572
 20
0.63803
 30
0.0
 11
0.170877
 21
0.70969
 31
0.0
  0
LINE
  8
0
 62
     0
 10
0.170877
 20
0.70969
 30
0.0
 11
0.143316
 21
0.782726
 31
0.0
  0
LINE
  8
0
 62
     0
 10
0.143316
 20
0.782726
 30
0.0
 11
0.121267
 21
0.858516
 31
0.0
  0
LINE
  8
0
 62
     0
 10
0.121267
 20
0.858516
 30
0.0
 11
0.106109
 21
0.935687
 31
0.0
  0
LINE
  8
0
 62
     0
 10
0.106109
 20
0.935687
 30
0.0
 11
0.0978408
 21
1.01424
 31
0.0
  0
LINE
  8
0
 62
     0
 10
0.0978408
 20
1.01424
 30
0.0
 11
0.0937066
 21
1.09279
 31
0.0
  0
LINE
  8
0
 62
     0
 10
0.0937066
 20
1.09279
 30
0.0
 11
0.0950846
 21
94.3434
 31
0.0
  0
LINE
  8
0
 62
     0
 10
0.0950846
 20
94.3434
 30
0.0
 11
0.0978408
 21
94.4217
 31
0.0
  0
LINE
  8
0
 62
     0
 10
0.0978408
 20
94.4217
 30
0.0
 11
0.106109
 21
94.5003
 31
0.0
  0
LINE
  8
0
 62
     0
 10
0.106109
 20
94.5003
 30
0.0
 11
0.121267
 21
94.5762
 31
0.0
  0
LINE
  8
0
 62
     0
 10
0.121267
 20
94.5762
 30
0.0
 11
0.143316
 21
94.6534
 31
0.0
  0
LINE
  8
0
 62
     0
 10
0.143316
 20
94.6534
 30
0.0
 11
0.170877
 21
94.7265
 31
0.0
  0
LINE
  8
0
 62
     0
 10
0.170877
 20
94.7265
 30
0.0
 11
0.202572
 21
94.7967
 31
0.0
  0
LINE
  8
0
 62
     0
 10
0.202572
 20
94.7967
 30
0.0
 11
0.241157
 21
94.8655
 31
0.0
  0
LINE
  8
0
 62
     0
 10
0.241157
 20
94.8655
 30
0.0
 11
0.285254
 21
94.9304
 31
0.0
  0
LINE
  8
0
 62
     0
 10
0.285254
 20
94.9304
 30
0.0
 11
0.333485
 21
94.9925
 31
0.0
  0
LINE
  8
0
 62
     0
 10
0.333485
 20
94.9925
 30
0.0
 11
0.38723
 21
95.0503
 31
0.0
  0
LINE
  8
0
 62
     0
 10
0.38723
 20
95.0503
 30
0.0
 11
0.445107
 21
95.1039
 31
0.0
  0
LINE
  8
0
 62
     0
 10
0.445107
 20
95.1039
 30
0.0
 11
0.507118
 21
95.1523
 31
0.0
  0
LINE
  8
0
 62
     0
 10
0.507118
 20
95.1523
 30
0.0
 11
0.571885
 21
95.1964
 31
0.0
  0
LINE
  8
0
 62
     0
 10
0.571885
 20
95.1964
 30
0.0
 11
0.640789
 21
95.2348
 31
0.0
  0
LINE
  8
0
 62
     0
 10
0.640789
 20
95.2348
 30
0.0
 11
0.711069
 21
95.2666
 31
0.0
  0
LINE
  8
0
 62
     0
 10
0.711069
 20
95.2666
 30
0.0
 11
0.784105
 21
95.2941
 31
0.0
  0
LINE
  8
0
 62
     0
 10
0.784105
 20
95.2941
 30
0.0
 11
0.861275
 21
95.3163
 31
0.0
  0
LINE
  8
0
 62
     0
 10
0.861275
 20
95.3163
 30
0.0
 11
0.937066
 21
95.3311
 31
0.0
  0
LINE
  8
0
 62
     0
 10
0.937066
 20
95.3311
 30
0.0
 11
1.01562
 21
95.3396
 31
0.0
  0
LINE
  8
0
 62
     0
 10
1.01562
 20
95.3396
 30
0.0
 11
1.09416
 21
95.3438
 31
0.0
  0
LINE
  8
0
 62
     0
 10
1.09416
 20
95.3438
 30
0.0
 11
151.496
 21
95.3424
 31
0.0
  0
LINE
  8
0
 62
     0
 10
12.1447
 20
16.6178
 30
0.0
 11
26.1441
 21
16.6178
 31
0.0
  0
LINE
  8
0
 62
     0
 10
26.1441
 20
16.6178
 30
0.0
 11
26.1441
 21
2.61827
 31
0.0
  0
LINE
  8
0
 62
     0
 10
26.1441
 20
2.61827
 30
0.0
 11
12.1447
 21
2.61827
 31
0.0
  0
LINE
  8
0
 62
     0
 10
12.1447
 20
2.61827
 30
0.0
 11
12.1447
 21
16.6178
 31
0.0
  0
LINE
  8
0
 62
     0
 10
40.7197
 20
16.6178
 30
0.0
 11
54.719
 21
16.6178
 31
0.0
  0
LINE
  8
0
 62
     0
 10
54.719
 20
16.6178
 30
0.0
 11
54.719
 21
2.61827
 31
0.0
  0
LINE
  8
0
 62
     0
 10
54.719
 20
2.61827
 30
0.0
 11
40.7197
 21
2.61827
 31
0.0
  0
LINE
  8
0
 62
     0
 10
40.7197
 20
2.61827
 30
0.0
 11
40.7197
 21
16.6178
 31
0.0
  0
LINE
  8
0
 62
     0
 10
59.7697
 20
16.6178
 30
0.0
 11
73.769
 21
16.6178
 31
0.0
  0
LINE
  8
0
 62
     0
 10
73.769
 20
16.6178
 30
0.0
 11
73.769
 21
2.61827
 31
0.0
  0
LINE
  8
0
 62
     0
 10
73.769
 20
2.61827
 30
0.0
 11
59.7697
 21
2.61827
 31
0.0
  0
LINE
  8
0
 62
     0
 10
59.7697
 20
2.61827
 30
0.0
 11
59.7697
 21
16.6178
 31
0.0
  0
LINE
  8
0
 62
     0
 10
78.8197
 20
16.6178
 30
0.0
 11
92.819
 21
16.6178
 31
0.0
  0
LINE
  8
0
 62
     0
 10
92.819
 20
16.6178
 30
0.0
 11
92.819
 21
2.61827
 31
0.0
  0
LINE
  8
0
 62
     0
 10
92.819
 20
2.61827
 30
0.0
 11
78.8197
 21
2.61827
 31
0.0
  0
LINE
  8
0
 62
     0
 10
78.8197
 20
2.61827
 30
0.0
 11
78.8197
 21
16.6178
 31
0.0
  0
LINE
  8
0
 62
     0
 10
97.8683
 20
16.6178
 30
0.0
 11
111.869
 21
16.6178
 31
0.0
  0
LINE
  8
0
 62
     0
 10
111.869
 20
16.6178
 30
0.0
 11
111.869
 21
2.61827
 31
0.0
  0
LINE
  8
0
 62
     0
 10
111.869
 20
2.61827
 30
0.0
 11
97.8683
 21
2.61827
 31
0.0
  0
LINE
  8
0
 62
     0
 10
97.8683
 20
2.61827
 30
0.0
 11
97.8683
 21
16.6178
 31
0.0
  0
LINE
  8
0
 62
     0
 10
116.918
 20
16.6178
 30
0.0
 11
130.919
 21
16.6178
 31
0.0
  0
LINE
  8
0
 62
     0
 10
130.919
 20
16.6178
 30
0.0
 11
130.919
 21
2.61827
 31
0.0
  0
LINE
  8
0
 62
     0
 10
130.919
 20
2.61827
 30
0.0
 11
116.918
 21
2.61827
 31
0.0
  0
LINE
  8
0
 62
     0
 10
116.918
 20
2.61827
 30
0.0
 11
116.918
 21
16.6178
 31
0.0
  0
LINE
  8
0
 62
     0
 10
135.97
 20
16.6178
 30
0.0
 11
149.969
 21
16.6178
 31
0.0
  0
LINE
  8
0
 62
     0
 10
149.969
 20
16.6178
 30
0.0
 11
149.969
 21
2.61827
 31
0.0
  0
LINE
  8
0
 62
     0
 10
149.969
 20
2.61827
 30
0.0
 11
135.97
 21
2.61827
 31
0.0
  0
LINE
  8
0
 62
     0
 10
135.97
 20
2.61827
 30
0.0
 11
135.97
 21
16.6178
 31
0.0
  0
LINE
  8
0
 62
     0
 10
2.61965
 20
35.6676
 30
0.0
 11
16.6192
 21
35.6676
 31
0.0
  0
LINE
  8
0
 62
     0
 10
16.6192
 20
35.6676
 30
0.0
 11
16.6192
 21
21.6683
 31
0.0
  0
LINE
  8
0
 62
     0
 10
16.6192
 20
21.6683
 30
0.0
 11
2.61965
 21
21.6683
 31
0.0
  0
LINE
  8
0
 62
     0
 10
2.61965
 20
21.6683
 30
0.0
 11
2.61965
 21
35.6676
 31
0.0
  0
LINE
  8
0
 62
     0
 10
21.6697
 20
35.6676
 30
0.0
 11
35.669
 21
35.6676
 31
0.0
  0
LINE
  8
0
 62
     0
 10
35.669
 20
35.6676
 30
0.0
 11
35.669
 21
21.6683
 31
0.0
  0
LINE
  8
0
 62
     0
 10
35.669
 20
21.6683
 30
0.0
 11
21.6697
 21
21.6683
 31
0.0
  0
LINE
  8
0
 62
     0
 10
21.6697
 20
21.6683
 30
0.0
 11
21.6697
 21
35.6676
 31
0.0
  0
LINE
  8
0
 62
     0
 10
40.7197
 20
35.6676
 30
0.0
 11
54.719
 21
35.6676
 31
0.0
  0
LINE
  8
0
 62
     0
 10
54.719
 20
35.6676
 30
0.0
 11
54.719
 21
21.6683
 31
0.0
  0
LINE
  8
0
 62
     0
 10
54.719
 20
21.6683
 30
0.0
 11
40.7197
 21
21.6683
 31
0.0
  0
LINE
  8
0
 62
     0
 10
40.7197
 20
21.6683
 30
0.0
 11
40.7197
 21
35.6676
 31
0.0
  0
LINE
  8
0
 62
     0
 10
59.7697
 20
35.6676
 30
0.0
 11
73.769
 21
35.6676
 31
0.0
  0
LINE
  8
0
 62
     0
 10
73.769
 20
35.6676
 30
0.0
 11
73.769
 21
21.6683
 31
0.0
  0
LINE
  8
0
 62
     0
 10
73.769
 20
21.6683
 30
0.0
 11
59.7697
 21
21.6683
 31
0.0
  0
LINE
  8
0
 62
     0
 10
59.7697
 20
21.6683
 30
0.0
 11
59.7697
 21
35.6676
 31
0.0
  0
LINE
  8
0
 62
     0
 10
78.8197
 20
35.6676
 30
0.0
 11
92.819
 21
35.6676
 31
0.0
  0
LINE
  8
0
 62
     0
 10
92.819
 20
35.6676
 30
0.0
 11
92.819
 21
21.6683
 31
0.0
  0
LINE
  8
0
 62
     0
 10
92.819
 20
21.6683
 30
0.0
 11
78.8197
 21
21.6683
 31
0.0
  0
LINE
  8
0
 62
     0
 10
78.8197
 20
21.6683
 30
0.0
 11
78.8197
 21
35.6676
 31
0.0
  0
LINE
  8
0
 62
     0
 10
97.8683
 20
35.6676
 30
0.0
 11
111.869
 21
35.6676
 31
0.0
  0
LINE
  8
0
 62
     0
 10
111.869
 20
35.6676
 30
0.0
 11
111.869
 21
21.6683
 31
0.0
  0
LINE
  8
0
 62
     0
 10
111.869
 20
21.6683
 30
0.0
 11
97.8683
 21
21.6683
 31
0.0
  0
LINE
  8
0
 62
     0
 10
97.8683
 20
21.6683
 30
0.0
 11
97.8683
 21
35.6676
 31
0.0
  0
LINE
  8
0
 62
     0
 10
126.445
 20
35.6676
 30
0.0
 11
140.444
 21
35.6676
 31
0.0
  0
LINE
  8
0
 62
     0
 10
140.444
 20
35.6676
 30
0.0
 11
140.444
 21
21.6683
 31
0.0
  0
LINE
  8
0
 62
     0
 10
140.444
 20
21.6683
 30
0.0
 11
126.445
 21
21.6683
 31
0.0
  0
LINE
  8
0
 62
     0
 10
126.445
 20
21.6683
 30
0.0
 11
126.445
 21
35.6676
 31
0.0
  0
LINE
  8
0
 62
     0
 10
2.61965
 20
54.7176
 30
0.0
 11
16.6192
 21
54.7176
 31
0.0
  0
LINE
  8
0
 62
     0
 10
16.6192
 20
54.7176
 30
0.0
 11
16.6192
 21
40.7183
 31
0.0
  0
LINE
  8
0
 62
     0
 10
16.6192
 20
40.7183
 30
0.0
 11
2.61965
 21
40.7183
 31
0.0
  0
LINE
  8
0
 62
     0
 10
2.61965
 20
40.7183
 30
0.0
 11
2.61965
 21
54.7176
 31
0.0
  0
LINE
  8
0
 62
     0
 10
21.6697
 20
54.7176
 30
0.0
 11
35.669
 21
54.7176
 31
0.0
  0
LINE
  8
0
 62
     0
 10
35.669
 20
54.7176
 30
0.0
 11
35.669
 21
40.7183
 31
0.0
  0
LINE
  8
0
 62
     0
 10
35.669
 20
40.7183
 30
0.0
 11
21.6697
 21
40.7183
 31
0.0
  0
LINE
  8
0
 62
     0
 10
21.6697
 20
40.7183
 30
0.0
 11
21.6697
 21
54.7176
 31
0.0
  0
LINE
  8
0
 62
     0
 10
40.7197
 20
54.7176
 30
0.0
 11
54.719
 21
54.7176
 31
0.0
  0
LINE
  8
0
 62
     0
 10
54.719
 20
54.7176
 30
0.0
 11
54.719
 21
40.7183
 31
0.0
  0
LINE
  8
0
 62
     0
 10
54.719
 20
40.7183
 30
0.0
 11
40.7197
 21
40.7183
 31
0.0
  0
LINE
  8
0
 62
     0
 10
40.7197
 20
40.7183
 30
0.0
 11
40.7197
 21
54.7176
 31
0.0
  0
LINE
  8
0
 62
     0
 10
59.7697
 20
54.7176
 30
0.0
 11
73.769
 21
54.7176
 31
0.0
  0
LINE
  8
0
 62
     0
 10
73.769
 20
54.7176
 30
0.0
 11
73.769
 21
40.7183
 31
0.0
  0
LINE
  8
0
 62
     0
 10
73.769
 20
40.7183
 30
0.0
 11
59.7697
 21
40.7183
 31
0.0
  0
LINE
  8
0
 62
     0
 10
59.7697
 20
40.7183
 30
0.0
 11
59.7697
 21
54.7176
 31
0.0
  0
LINE
  8
0
 62
     0
 10
78.8197
 20
54.7176
 30
0.0
 11
92.819
 21
54.7176
 31
0.0
  0
LINE
  8
0
 62
     0
 10
92.819
 20
54.7176
 30
0.0
 11
92.819
 21
40.7183
 31
0.0
  0
LINE
  8
0
 62
     0
 10
92.819
 20
40.7183
 30
0.0
 11
78.8197
 21
40.7183
 31
0.0
  0
LINE
  8
0
 62
     0
 10
78.8197
 20
40.7183
 30
0.0
 11
78.8197
 21
54.7176
 31
0.0
  0
LINE
  8
0
 62
     0
 10
97.8683
 20
54.7176
 30
0.0
 11
111.869
 21
54.7176
 31
0.0
  0
LINE
  8
0
 62
     0
 10
111.869
 20
54.7176
 30
0.0
 11
111.869
 21
40.7183
 31
0.0
  0
LINE
  8
0
 62
     0
 10
111.869
 20
40.7183
 30
0.0
 11
97.8683
 21
40.7183
 31
0.0
  0
LINE
  8
0
 62
     0
 10
97.8683
 20
40.7183
 30
0.0
 11
97.8683
 21
54.7176
 31
0.0
  0
LINE
  8
0
 62
     0
 10
116.918
 20
54.7176
 30
0.0
 11
130.919
 21
54.7176
 31
0.0
  0
LINE
  8
0
 62
     0
 10
130.919
 20
54.7176
 30
0.0
 11
130.919
 21
40.7183
 31
0.0
  0
LINE
  8
0
 62
     0
 10
130.919
 20
40.7183
 30
0.0
 11
116.918
 21
40.7183
 31
0.0
  0
LINE
  8
0
 62
     0
 10
116.918
 20
40.7183
 30
0.0
 11
116.918
 21
54.7176
 31
0.0
  0
LINE
  8
0
 62
     0
 10
135.97
 20
54.7176
 30
0.0
 11
149.969
 21
54.7176
 31
0.0
  0
LINE
  8
0
 62
     0
 10
149.969
 20
54.7176
 30
0.0
 11
149.969
 21
40.7183
 31
0.0
  0
LINE
  8
0
 62
     0
 10
149.969
 20
40.7183
 30
0.0
 11
135.97
 21
40.7183
 31
0.0
  0
LINE
  8
0
 62
     0
 10
135.97
 20
40.7183
 30
0.0
 11
135.97
 21
54.7176
 31
0.0
  0
LINE
  8
0
 62
     0
 10
2.61965
 20
73.7676
 30
0.0
 11
16.6192
 21
73.7676
 31
0.0
  0
LINE
  8
0
 62
     0
 10
16.6192
 20
73.7676
 30
0.0
 11
16.6192
 21
59.7683
 31
0.0
  0
LINE
  8
0
 62
     0
 10
16.6192
 20
59.7683
 30
0.0
 11
2.61965
 21
59.7683
 31
0.0
  0
LINE
  8
0
 62
     0
 10
2.61965
 20
59.7683
 30
0.0
 11
2.61965
 21
73.7676
 31
0.0
  0
LINE
  8
0
 62
     0
 10
21.6697
 20
73.7676
 30
0.0
 11
35.669
 21
73.7676
 31
0.0
  0
LINE
  8
0
 62
     0
 10
35.669
 20
73.7676
 30
0.0
 11
35.669
 21
59.7683
 31
0.0
  0
LINE
  8
0
 62
     0
 10
35.669
 20
59.7683
 30
0.0
 11
21.6697
 21
59.7683
 31
0.0
  0
LINE
  8
0
 62
     0
 10
21.6697
 20
59.7683
 30
0.0
 11
21.6697
 21
73.7676
 31
0.0
  0
LINE
  8
0
 62
     0
 10
40.7197
 20
73.7676
 30
0.0
 11
54.719
 21
73.7676
 31
0.0
  0
LINE
  8
0
 62
     0
 10
54.719
 20
73.7676
 30
0.0
 11
54.719
 21
59.7683
 31
0.0
  0
LINE
  8
0
 62
     0
 10
54.719
 20
59.7683
 30
0.0
 11
40.7197
 21
59.7683
 31
0.0
  0
LINE
  8
0
 62
     0
 10
40.7197
 20
59.7683
 30
0.0
 11
40.7197
 21
73.7676
 31
0.0
  0
LINE
  8
0
 62
     0
 10
59.7697
 20
73.7676
 30
0.0
 11
73.769
 21
73.7676
 31
0.0
  0
LINE
  8
0
 62
     0
 10
73.769
 20
73.7676
 30
0.0
 11
73.769
 21
59.7683
 31
0.0
  0
LINE
  8
0
 62
     0
 10
73.769
 20
59.7683
 30
0.0
 11
59.7697
 21
59.7683
 31
0.0
  0
LINE
  8
0
 62
     0
 10
59.7697
 20
59.7683
 30
0.0
 11
59.7697
 21
73.7676
 31
0.0
  0
LINE
  8
0
 62
     0
 10
78.8197
 20
73.7676
 30
0.0
 11
92.819
 21
73.7676
 31
0.0
  0
LINE
  8
0
 62
     0
 10
92.819
 20
73.7676
 30
0.0
 11
92.819
 21
59.7683
 31
0.0
  0
LINE
  8
0
 62
     0
 10
92.819
 20
59.7683
 30
0.0
 11
78.8197
 21
59.7683
 31
0.0
  0
LINE
  8
0
 62
     0
 10
78.8197
 20
59.7683
 30
0.0
 11
78.8197
 21
73.7676
 31
0.0
  0
LINE
  8
0
 62
     0
 10
97.8683
 20
73.7676
 30
0.0
 11
111.869
 21
73.7676
 31
0.0
  0
LINE
  8
0
 62
     0
 10
111.869
 20
73.7676
 30
0.0
 11
111.869
 21
59.7683
 31
0.0
  0
LINE
  8
0
 62
     0
 10
111.869
 20
59.7683
 30
0.0
 11
97.8683
 21
59.7683
 31
0.0
  0
LINE
  8
0
 62
     0
 10
97.8683
 20
59.7683
 30
0.0
 11
97.8683
 21
73.7676
 31
0.0
  0
LINE
  8
0
 62
     0
 10
116.918
 20
73.7676
 30
0.0
 11
130.919
 21
73.7676
 31
0.0
  0
LINE
  8
0
 62
     0
 10
130.919
 20
73.7676
 30
0.0
 11
130.919
 21
59.7683
 31
0.0
  0
LINE
  8
0
 62
     0
 10
130.919
 20
59.7683
 30
0.0
 11
116.918
 21
59.7683
 31
0.0
  0
LINE
  8
0
 62
     0
 10
116.918
 20
59.7683
 30
0.0
 11
116.918
 21
73.7676
 31
0.0
  0
LINE
  8
0
 62
     0
 10
135.97
 20
73.7676
 30
0.0
 11
149.969
 21
73.7676
 31
0.0
  0
LINE
  8
0
 62
     0
 10
149.969
 20
73.7676
 30
0.0
 11
149.969
 21
59.7683
 31
0.0
  0
LINE
  8
0
 62
     0
 10
149.969
 20
59.7683
 30
0.0
 11
135.97
 21
59.7683
 31
0.0
  0
LINE
  8
0
 62
     0
 10
135.97
 20
59.7683
 30
0.0
 11
135.97
 21
73.7676
 31
0.0
  0
LINE
  8
0
 62
     0
 10
2.61965
 20
92.8176
 30
0.0
 11
16.6192
 21
92.8176
 31
0.0
  0
LINE
  8
0
 62
     0
 10
16.6192
 20
92.8176
 30
0.0
 11
16.6192
 21
78.8183
 31
0.0
  0
LINE
  8
0
 62
     0
 10
16.6192
 20
78.8183
 30
0.0
 11
2.61965
 21
78.8183
 31
0.0
  0
LINE
  8
0
 62
     0
 10
2.61965
 20
78.8183
 30
0.0
 11
2.61965
 21
92.8176
 31
0.0
  0
LINE
  8
0
 62
     0
 10
21.6697
 20
92.8176
 30
0.0
 11
35.669
 21
92.8176
 31
0.0
  0
LINE
  8
0
 62
     0
 10
35.669
 20
92.8176
 30
0.0
 11
35.669
 21
78.8183
 31
0.0
  0
LINE
  8
0
 62
     0
 10
35.669
 20
78.8183
 30
0.0
 11
21.6697
 21
78.8183
 31
0.0
  0
LINE
  8
0
 62
     0
 10
21.6697
 20
78.8183
 30
0.0
 11
21.6697
 21
92.8176
 31
0.0
  0
LINE
  8
0
 62
     0
 10
40.7197
 20
92.8176
 30
0.0
 11
54.719
 21
92.8176
 31
0.0
  0
LINE
  8
0
 62
     0
 10
54.719
 20
92.8176
 30
0.0
 11
54.719
 21
78.8183
 31
0.0
  0
LINE
  8
0
 62
     0
 10
54.719
 20
78.8183
 30
0.0
 11
40.7197
 21
78.8183
 31
0.0
  0
LINE
  8
0
 62
     0
 10
40.7197
 20
78.8183
 30
0.0
 11
40.7197
 21
92.8176
 31
0.0
  0
LINE
  8
0
 62
     0
 10
59.7697
 20
92.8176
 30
0.0
 11
73.769
 21
92.8176
 31
0.0
  0
LINE
  8
0
 62
     0
 10
73.769
 20
92.8176
 30
0.0
 11
73.769
 21
78.8183
 31
0.0
  0
LINE
  8
0
 62
     0
 10
73.769
 20
78.8183
 30
0.0
 11
59.7697
 21
78.8183
 31
0.0
  0
LINE
  8
0
 62
     0
 10
59.7697
 20
78.8183
 30
0.0
 11
59.7697
 21
92.8176
 31
0.0
  0
LINE
  8
0
 62
     0
 10
78.8197
 20
92.8176
 30
0.0
 11
92.819
 21
92.8176
 31
0.0
  0
LINE
  8
0
 62
     0
 10
92.819
 20
92.8176
 30
0.0
 11
92.819
 21
78.8183
 31
0.0
  0
LINE
  8
0
 62
     0
 10
92.819
 20
78.8183
 30
0.0
 11
78.8197
 21
78.8183
 31
0.0
  0
LINE
  8
0
 62
     0
 10
78.8197
 20
78.8183
 30
0.0
 11
78.8197
 21
92.8176
 31
0.0
  0
LINE
  8
0
 62
     0
 10
97.8683
 20
92.8176
 30
0.0
 11
111.869
 21
92.8176
 31
0.0
  0
LINE
  8
0
 62
     0
 10
111.869
 20
92.8176
 30
0.0
 11
111.869
 21
78.8183
 31
0.0
  0
LINE
  8
0
 62
     0
 10
111.869
 20
78.8183
 30
0.0
 11
97.8683
 21
78.8183
 31
0.0
  0
LINE
  8
0
 62
     0
 10
97.8683
 20
78.8183
 30
0.0
 11
97.8683
 21
92.8176
 31
0.0
  0
LINE
  8
0
 62
     0
 10
126.445
 20
92.8176
 30
0.0
 11
140.444
 21
92.8176
 31
0.0
  0
LINE
  8
0
 62
     0
 10
140.444
 20
92.8176
 30
0.0
 11
140.444
 21
78.8183
 31
0.0
  0
LINE
  8
0
 62
     0
 10
140.444
 20
78.8183
 30
0.0
 11
126.445
 21
78.8183
 31
0.0
  0
LINE
  8
0
 62
     0
 10
126.445
 20
78.8183
 30
0.0
 11
126.445
 21
92.8176
 31
0.0
  0
ENDSEC
  0
EOF
