  0
SECTION
  2
HEADER
  9
$ACADVER
  1
AC1009
  9
$EXTMIN
 10
0.0
 20
0.0
 30
0.0
  9
$EXTMAX
 10
1000.0
 20
1000.0
 30
0.0
  9
$FILLMODE
 70
 0
  9
$SPLFRAME
 70
 1
  0
ENDSEC
  0
SECTION
  2
TABLES
  0
TABLE
  2
LAYER
 70
1
  0
LAYER
  2
0
 70
     0
 62
     7
  6
CONTINUOUS
  0
ENDTAB
  0
ENDSEC
  0
SECTION
  2
ENTITIES
  0
LINE
  8
0
 62
     0
 10
0.0950846
 20
95.3424
 30
0.0
 11
328.708
 21
95.3424
 31
0.0
  0
LINE
  8
0
 62
     0
 10
328.708
 20
95.3424
 30
0.0
 11
328.708
 21
0.0923286
 31
0.0
  0
LINE
  8
0
 62
     0
 10
328.708
 20
0.0923286
 30
0.0
 11
0.0950846
 21
0.0923286
 31
0.0
  0
LINE
  8
0
 62
     0
 10
0.0950846
 20
0.0923286
 30
0.0
 11
0.0950846
 21
95.3424
 31
0.0
  0
LINE
  8
0
 62
     0
 10
7.38216
 20
16.6178
 30
0.0
 11
21.3817
 21
16.6178
 31
0.0
  0
LINE
  8
0
 62
     0
 10
21.3817
 20
16.6178
 30
0.0
 11
21.3817
 21
2.61827
 31
0.0
  0
LINE
  8
0
 62
     0
 10
21.3817
 20
2.61827
 30
0.0
 11
7.38216
 21
2.61827
 31
0.0
  0
LINE
  8
0
 62
     0
 10
7.38216
 20
2.61827
 30
0.0
 11
7.38216
 21
16.6178
 31
0.0
  0
LINE
  8
0
 62
     0
 10
31.1947
 20
16.6178
 30
0.0
 11
45.194
 21
16.6178
 31
0.0
  0
LINE
  8
0
 62
     0
 10
45.194
 20
16.6178
 30
0.0
 11
45.194
 21
2.61827
 31
0.0
  0
LINE
  8
0
 62
     0
 10
45.194
 20
2.61827
 30
0.0
 11
31.1947
 21
2.61827
 31
0.0
  0
LINE
  8
0
 62
     0
 10
31.1947
 20
2.61827
 30
0.0
 11
31.1947
 21
16.6178
 31
0.0
  0
LINE
  8
0
 62
     0
 10
50.2447
 20
16.6178
 30
0.0
 11
64.244
 21
16.6178
 31
0.0
  0
LINE
  8
0
 62
     0
 10
64.244
 20
16.6178
 30
0.0
 11
64.244
 21
2.61827
 31
0.0
  0
LINE
  8
0
 62
     0
 10
64.244
 20
2.61827
 30
0.0
 11
50.2447
 21
2.61827
 31
0.0
  0
LINE
  8
0
 62
     0
 10
50.2447
 20
2.61827
 30
0.0
 11
50.2447
 21
16.6178
 31
0.0
  0
LINE
  8
0
 62
     0
 10
69.2947
 20
16.6178
 30
0.0
 11
83.294
 21
16.6178
 31
0.0
  0
LINE
  8
0
 62
     0
 10
83.294
 20
16.6178
 30
0.0
 11
83.294
 21
2.61827
 31
0.0
  0
LINE
  8
0
 62
     0
 10
83.294
 20
2.61827
 30
0.0
 11
69.2947
 21
2.61827
 31
0.0
  0
LINE
  8
0
 62
     0
 10
69.2947
 20
2.61827
 30
0.0
 11
69.2947
 21
16.6178
 31
0.0
  0
LINE
  8
0
 62
     0
 10
88.3447
 20
16.6178
 30
0.0
 11
102.344
 21
16.6178
 31
0.0
  0
LINE
  8
0
 62
     0
 10
102.344
 20
16.6178
 30
0.0
 11
102.344
 21
2.61827
 31
0.0
  0
LINE
  8
0
 62
     0
 10
102.344
 20
2.61827
 30
0.0
 11
88.3447
 21
2.61827
 31
0.0
  0
LINE
  8
0
 62
     0
 10
88.3447
 20
2.61827
 30
0.0
 11
88.3447
 21
16.6178
 31
0.0
  0
LINE
  8
0
 62
     0
 10
116.918
 20
16.6178
 30
0.0
 11
130.919
 21
16.6178
 31
0.0
  0
LINE
  8
0
 62
     0
 10
130.919
 20
16.6178
 30
0.0
 11
130.919
 21
2.61827
 31
0.0
  0
LINE
  8
0
 62
     0
 10
130.919
 20
2.61827
 30
0.0
 11
116.918
 21
2.61827
 31
0.0
  0
LINE
  8
0
 62
     0
 10
116.918
 20
2.61827
 30
0.0
 11
116.918
 21
16.6178
 31
0.0
  0
LINE
  8
0
 62
     0
 10
188.357
 20
16.6178
 30
0.0
 11
202.357
 21
16.6178
 31
0.0
  0
LINE
  8
0
 62
     0
 10
202.357
 20
16.6178
 30
0.0
 11
202.357
 21
2.61827
 31
0.0
  0
LINE
  8
0
 62
     0
 10
202.357
 20
2.61827
 30
0.0
 11
188.357
 21
2.61827
 31
0.0
  0
LINE
  8
0
 62
     0
 10
188.357
 20
2.61827
 30
0.0
 11
188.357
 21
16.6178
 31
0.0
  0
LINE
  8
0
 62
     0
 10
216.932
 20
16.6178
 30
0.0
 11
230.932
 21
16.6178
 31
0.0
  0
LINE
  8
0
 62
     0
 10
230.932
 20
16.6178
 30
0.0
 11
230.932
 21
2.61827
 31
0.0
  0
LINE
  8
0
 62
     0
 10
230.932
 20
2.61827
 30
0.0
 11
216.932
 21
2.61827
 31
0.0
  0
LINE
  8
0
 62
     0
 10
216.932
 20
2.61827
 30
0.0
 11
216.932
 21
16.6178
 31
0.0
  0
LINE
  8
0
 62
     0
 10
235.982
 20
16.6178
 30
0.0
 11
249.982
 21
16.6178
 31
0.0
  0
LINE
  8
0
 62
     0
 10
249.982
 20
16.6178
 30
0.0
 11
249.982
 21
2.61827
 31
0.0
  0
LINE
  8
0
 62
     0
 10
249.982
 20
2.61827
 30
0.0
 11
235.982
 21
2.61827
 31
0.0
  0
LINE
  8
0
 62
     0
 10
235.982
 20
2.61827
 30
0.0
 11
235.982
 21
16.6178
 31
0.0
  0
LINE
  8
0
 62
     0
 10
255.032
 20
16.6178
 30
0.0
 11
269.032
 21
16.6178
 31
0.0
  0
LINE
  8
0
 62
     0
 10
269.032
 20
16.6178
 30
0.0
 11
269.032
 21
2.61827
 31
0.0
  0
LINE
  8
0
 62
     0
 10
269.032
 20
2.61827
 30
0.0
 11
255.032
 21
2.61827
 31
0.0
  0
LINE
  8
0
 62
     0
 10
255.032
 20
2.61827
 30
0.0
 11
255.032
 21
16.6178
 31
0.0
  0
LINE
  8
0
 62
     0
 10
274.082
 20
16.6178
 30
0.0
 11
288.082
 21
16.6178
 31
0.0
  0
LINE
  8
0
 62
     0
 10
288.082
 20
16.6178
 30
0.0
 11
288.082
 21
2.61827
 31
0.0
  0
LINE
  8
0
 62
     0
 10
288.082
 20
2.61827
 30
0.0
 11
274.082
 21
2.61827
 31
0.0
  0
LINE
  8
0
 62
     0
 10
274.082
 20
2.61827
 30
0.0
 11
274.082
 21
16.6178
 31
0.0
  0
LINE
  8
0
 62
     0
 10
293.132
 20
16.6178
 30
0.0
 11
307.132
 21
16.6178
 31
0.0
  0
LINE
  8
0
 62
     0
 10
307.132
 20
16.6178
 30
0.0
 11
307.132
 21
2.61827
 31
0.0
  0
LINE
  8
0
 62
     0
 10
307.132
 20
2.61827
 30
0.0
 11
293.132
 21
2.61827
 31
0.0
  0
LINE
  8
0
 62
     0
 10
293.132
 20
2.61827
 30
0.0
 11
293.132
 21
16.6178
 31
0.0
  0
LINE
  8
0
 62
     0
 10
312.182
 20
16.6178
 30
0.0
 11
326.182
 21
16.6178
 31
0.0
  0
LINE
  8
0
 62
     0
 10
326.182
 20
16.6178
 30
0.0
 11
326.182
 21
2.61827
 31
0.0
  0
LINE
  8
0
 62
     0
 10
326.182
 20
2.61827
 30
0.0
 11
312.182
 21
2.61827
 31
0.0
  0
LINE
  8
0
 62
     0
 10
312.182
 20
2.61827
 30
0.0
 11
312.182
 21
16.6178
 31
0.0
  0
LINE
  8
0
 62
     0
 10
7.38216
 20
35.6676
 30
0.0
 11
21.3817
 21
35.6676
 31
0.0
  0
LINE
  8
0
 62
     0
 10
21.3817
 20
35.6676
 30
0.0
 11
21.3817
 21
21.6683
 31
0.0
  0
LINE
  8
0
 62
     0
 10
21.3817
 20
21.6683
 30
0.0
 11
7.38216
 21
21.6683
 31
0.0
  0
LINE
  8
0
 62
     0
 10
7.38216
 20
21.6683
 30
0.0
 11
7.38216
 21
35.6676
 31
0.0
  0
LINE
  8
0
 62
     0
 10
31.1947
 20
35.6676
 30
0.0
 11
45.194
 21
35.6676
 31
0.0
  0
LINE
  8
0
 62
     0
 10
45.194
 20
35.6676
 30
0.0
 11
45.194
 21
21.6683
 31
0.0
  0
LINE
  8
0
 62
     0
 10
45.194
 20
21.6683
 30
0.0
 11
31.1947
 21
21.6683
 31
0.0
  0
LINE
  8
0
 62
     0
 10
31.1947
 20
21.6683
 30
0.0
 11
31.1947
 21
35.6676
 31
0.0
  0
LINE
  8
0
 62
     0
 10
50.2447
 20
35.6676
 30
0.0
 11
64.244
 21
35.6676
 31
0.0
  0
LINE
  8
0
 62
     0
 10
64.244
 20
35.6676
 30
0.0
 11
64.244
 21
21.6683
 31
0.0
  0
LINE
  8
0
 62
     0
 10
64.244
 20
21.6683
 30
0.0
 11
50.2447
 21
21.6683
 31
0.0
  0
LINE
  8
0
 62
     0
 10
50.2447
 20
21.6683
 30
0.0
 11
50.2447
 21
35.6676
 31
0.0
  0
LINE
  8
0
 62
     0
 10
69.2947
 20
35.6676
 30
0.0
 11
83.294
 21
35.6676
 31
0.0
  0
LINE
  8
0
 62
     0
 10
83.294
 20
35.6676
 30
0.0
 11
83.294
 21
21.6683
 31
0.0
  0
LINE
  8
0
 62
     0
 10
83.294
 20
21.6683
 30
0.0
 11
69.2947
 21
21.6683
 31
0.0
  0
LINE
  8
0
 62
     0
 10
69.2947
 20
21.6683
 30
0.0
 11
69.2947
 21
35.6676
 31
0.0
  0
LINE
  8
0
 62
     0
 10
88.3447
 20
35.6676
 30
0.0
 11
102.344
 21
35.6676
 31
0.0
  0
LINE
  8
0
 62
     0
 10
102.344
 20
35.6676
 30
0.0
 11
102.344
 21
21.6683
 31
0.0
  0
LINE
  8
0
 62
     0
 10
102.344
 20
21.6683
 30
0.0
 11
88.3447
 21
21.6683
 31
0.0
  0
LINE
  8
0
 62
     0
 10
88.3447
 20
21.6683
 30
0.0
 11
88.3447
 21
35.6676
 31
0.0
  0
LINE
  8
0
 62
     0
 10
107.395
 20
35.6676
 30
0.0
 11
121.394
 21
35.6676
 31
0.0
  0
LINE
  8
0
 62
     0
 10
121.394
 20
35.6676
 30
0.0
 11
121.394
 21
21.6683
 31
0.0
  0
LINE
  8
0
 62
     0
 10
121.394
 20
21.6683
 30
0.0
 11
107.395
 21
21.6683
 31
0.0
  0
LINE
  8
0
 62
     0
 10
107.395
 20
21.6683
 30
0.0
 11
107.395
 21
35.6676
 31
0.0
  0
LINE
  8
0
 62
     0
 10
126.445
 20
35.6676
 30
0.0
 11
140.444
 21
35.6676
 31
0.0
  0
LINE
  8
0
 62
     0
 10
140.444
 20
35.6676
 30
0.0
 11
140.444
 21
21.6683
 31
0.0
  0
LINE
  8
0
 62
     0
 10
140.444
 20
21.6683
 30
0.0
 11
126.445
 21
21.6683
 31
0.0
  0
LINE
  8
0
 62
     0
 10
126.445
 20
21.6683
 30
0.0
 11
126.445
 21
35.6676
 31
0.0
  0
LINE
  8
0
 62
     0
 10
178.832
 20
35.6676
 30
0.0
 11
192.832
 21
35.6676
 31
0.0
  0
LINE
  8
0
 62
     0
 10
192.832
 20
35.6676
 30
0.0
 11
192.832
 21
21.6683
 31
0.0
  0
LINE
  8
0
 62
     0
 10
192.832
 20
21.6683
 30
0.0
 11
178.832
 21
21.6683
 31
0.0
  0
LINE
  8
0
 62
     0
 10
178.832
 20
21.6683
 30
0.0
 11
178.832
 21
35.6676
 31
0.0
  0
LINE
  8
0
 62
     0
 10
197.882
 20
35.6676
 30
0.0
 11
211.882
 21
35.6676
 31
0.0
  0
LINE
  8
0
 62
     0
 10
211.882
 20
35.6676
 30
0.0
 11
211.882
 21
21.6683
 31
0.0
  0
LINE
  8
0
 62
     0
 10
211.882
 20
21.6683
 30
0.0
 11
197.882
 21
21.6683
 31
0.0
  0
LINE
  8
0
 62
     0
 10
197.882
 20
21.6683
 30
0.0
 11
197.882
 21
35.6676
 31
0.0
  0
LINE
  8
0
 62
     0
 10
216.932
 20
35.6676
 30
0.0
 11
230.932
 21
35.6676
 31
0.0
  0
LINE
  8
0
 62
     0
 10
230.932
 20
35.6676
 30
0.0
 11
230.932
 21
21.6683
 31
0.0
  0
LINE
  8
0
 62
     0
 10
230.932
 20
21.6683
 30
0.0
 11
216.932
 21
21.6683
 31
0.0
  0
LINE
  8
0
 62
     0
 10
216.932
 20
21.6683
 30
0.0
 11
216.932
 21
35.6676
 31
0.0
  0
LINE
  8
0
 62
     0
 10
235.982
 20
35.6676
 30
0.0
 11
249.982
 21
35.6676
 31
0.0
  0
LINE
  8
0
 62
     0
 10
249.982
 20
35.6676
 30
0.0
 11
249.982
 21
21.6683
 31
0.0
  0
LINE
  8
0
 62
     0
 10
249.982
 20
21.6683
 30
0.0
 11
235.982
 21
21.6683
 31
0.0
  0
LINE
  8
0
 62
     0
 10
235.982
 20
21.6683
 30
0.0
 11
235.982
 21
35.6676
 31
0.0
  0
LINE
  8
0
 62
     0
 10
255.032
 20
35.6676
 30
0.0
 11
269.032
 21
35.6676
 31
0.0
  0
LINE
  8
0
 62
     0
 10
269.032
 20
35.6676
 30
0.0
 11
269.032
 21
21.6683
 31
0.0
  0
LINE
  8
0
 62
     0
 10
269.032
 20
21.6683
 30
0.0
 11
255.032
 21
21.6683
 31
0.0
  0
LINE
  8
0
 62
     0
 10
255.032
 20
21.6683
 30
0.0
 11
255.032
 21
35.6676
 31
0.0
  0
LINE
  8
0
 62
     0
 10
274.082
 20
35.6676
 30
0.0
 11
288.082
 21
35.6676
 31
0.0
  0
LINE
  8
0
 62
     0
 10
288.082
 20
35.6676
 30
0.0
 11
288.082
 21
21.6683
 31
0.0
  0
LINE
  8
0
 62
     0
 10
288.082
 20
21.6683
 30
0.0
 11
274.082
 21
21.6683
 31
0.0
  0
LINE
  8
0
 62
     0
 10
274.082
 20
21.6683
 30
0.0
 11
274.082
 21
35.6676
 31
0.0
  0
LINE
  8
0
 62
     0
 10
302.657
 20
35.6676
 30
0.0
 11
316.657
 21
35.6676
 31
0.0
  0
LINE
  8
0
 62
     0
 10
316.657
 20
35.6676
 30
0.0
 11
316.657
 21
21.6683
 31
0.0
  0
LINE
  8
0
 62
     0
 10
316.657
 20
21.6683
 30
0.0
 11
302.657
 21
21.6683
 31
0.0
  0
LINE
  8
0
 62
     0
 10
302.657
 20
21.6683
 30
0.0
 11
302.657
 21
35.6676
 31
0.0
  0
LINE
  8
0
 62
     0
 10
7.38216
 20
54.7176
 30
0.0
 11
21.3817
 21
54.7176
 31
0.0
  0
LINE
  8
0
 62
     0
 10
21.3817
 20
54.7176
 30
0.0
 11
21.3817
 21
40.7183
 31
0.0
  0
LINE
  8
0
 62
     0
 10
21.3817
 20
40.7183
 30
0.0
 11
7.38216
 21
40.7183
 31
0.0
  0
LINE
  8
0
 62
     0
 10
7.38216
 20
40.7183
 30
0.0
 11
7.38216
 21
54.7176
 31
0.0
  0
LINE
  8
0
 62
     0
 10
31.1947
 20
54.7176
 30
0.0
 11
45.194
 21
54.7176
 31
0.0
  0
LINE
  8
0
 62
     0
 10
45.194
 20
54.7176
 30
0.0
 11
45.194
 21
40.7183
 31
0.0
  0
LINE
  8
0
 62
     0
 10
45.194
 20
40.7183
 30
0.0
 11
31.1947
 21
40.7183
 31
0.0
  0
LINE
  8
0
 62
     0
 10
31.1947
 20
40.7183
 30
0.0
 11
31.1947
 21
54.7176
 31
0.0
  0
LINE
  8
0
 62
     0
 10
50.2447
 20
54.7176
 30
0.0
 11
64.244
 21
54.7176
 31
0.0
  0
LINE
  8
0
 62
     0
 10
64.244
 20
54.7176
 30
0.0
 11
64.244
 21
40.7183
 31
0.0
  0
LINE
  8
0
 62
     0
 10
64.244
 20
40.7183
 30
0.0
 11
50.2447
 21
40.7183
 31
0.0
  0
LINE
  8
0
 62
     0
 10
50.2447
 20
40.7183
 30
0.0
 11
50.2447
 21
54.7176
 31
0.0
  0
LINE
  8
0
 62
     0
 10
69.2947
 20
54.7176
 30
0.0
 11
83.294
 21
54.7176
 31
0.0
  0
LINE
  8
0
 62
     0
 10
83.294
 20
54.7176
 30
0.0
 11
83.294
 21
40.7183
 31
0.0
  0
LINE
  8
0
 62
     0
 10
83.294
 20
40.7183
 30
0.0
 11
69.2947
 21
40.7183
 31
0.0
  0
LINE
  8
0
 62
     0
 10
69.2947
 20
40.7183
 30
0.0
 11
69.2947
 21
54.7176
 31
0.0
  0
LINE
  8
0
 62
     0
 10
88.3447
 20
54.7176
 30
0.0
 11
102.344
 21
54.7176
 31
0.0
  0
LINE
  8
0
 62
     0
 10
102.344
 20
54.7176
 30
0.0
 11
102.344
 21
40.7183
 31
0.0
  0
LINE
  8
0
 62
     0
 10
102.344
 20
40.7183
 30
0.0
 11
88.3447
 21
40.7183
 31
0.0
  0
LINE
  8
0
 62
     0
 10
88.3447
 20
40.7183
 30
0.0
 11
88.3447
 21
54.7176
 31
0.0
  0
LINE
  8
0
 62
     0
 10
107.395
 20
54.7176
 30
0.0
 11
121.394
 21
54.7176
 31
0.0
  0
LINE
  8
0
 62
     0
 10
121.394
 20
54.7176
 30
0.0
 11
121.394
 21
40.7183
 31
0.0
  0
LINE
  8
0
 62
     0
 10
121.394
 20
40.7183
 30
0.0
 11
107.395
 21
40.7183
 31
0.0
  0
LINE
  8
0
 62
     0
 10
107.395
 20
40.7183
 30
0.0
 11
107.395
 21
54.7176
 31
0.0
  0
LINE
  8
0
 62
     0
 10
126.445
 20
54.7176
 30
0.0
 11
140.444
 21
54.7176
 31
0.0
  0
LINE
  8
0
 62
     0
 10
140.444
 20
54.7176
 30
0.0
 11
140.444
 21
40.7183
 31
0.0
  0
LINE
  8
0
 62
     0
 10
140.444
 20
40.7183
 30
0.0
 11
126.445
 21
40.7183
 31
0.0
  0
LINE
  8
0
 62
     0
 10
126.445
 20
40.7183
 30
0.0
 11
126.445
 21
54.7176
 31
0.0
  0
LINE
  8
0
 62
     0
 10
178.832
 20
54.7176
 30
0.0
 11
192.832
 21
54.7176
 31
0.0
  0
LINE
  8
0
 62
     0
 10
192.832
 20
54.7176
 30
0.0
 11
192.832
 21
40.7183
 31
0.0
  0
LINE
  8
0
 62
     0
 10
192.832
 20
40.7183
 30
0.0
 11
178.832
 21
40.7183
 31
0.0
  0
LINE
  8
0
 62
     0
 10
178.832
 20
40.7183
 30
0.0
 11
178.832
 21
54.7176
 31
0.0
  0
LINE
  8
0
 62
     0
 10
197.882
 20
54.7176
 30
0.0
 11
211.882
 21
54.7176
 31
0.0
  0
LINE
  8
0
 62
     0
 10
211.882
 20
54.7176
 30
0.0
 11
211.882
 21
40.7183
 31
0.0
  0
LINE
  8
0
 62
     0
 10
211.882
 20
40.7183
 30
0.0
 11
197.882
 21
40.7183
 31
0.0
  0
LINE
  8
0
 62
     0
 10
197.882
 20
40.7183
 30
0.0
 11
197.882
 21
54.7176
 31
0.0
  0
LINE
  8
0
 62
     0
 10
216.932
 20
54.7176
 30
0.0
 11
230.932
 21
54.7176
 31
0.0
  0
LINE
  8
0
 62
     0
 10
230.932
 20
54.7176
 30
0.0
 11
230.932
 21
40.7183
 31
0.0
  0
LINE
  8
0
 62
     0
 10
230.932
 20
40.7183
 30
0.0
 11
216.932
 21
40.7183
 31
0.0
  0
LINE
  8
0
 62
     0
 10
216.932
 20
40.7183
 30
0.0
 11
216.932
 21
54.7176
 31
0.0
  0
LINE
  8
0
 62
     0
 10
235.982
 20
54.7176
 30
0.0
 11
249.982
 21
54.7176
 31
0.0
  0
LINE
  8
0
 62
     0
 10
249.982
 20
54.7176
 30
0.0
 11
249.982
 21
40.7183
 31
0.0
  0
LINE
  8
0
 62
     0
 10
249.982
 20
40.7183
 30
0.0
 11
235.982
 21
40.7183
 31
0.0
  0
LINE
  8
0
 62
     0
 10
235.982
 20
40.7183
 30
0.0
 11
235.982
 21
54.7176
 31
0.0
  0
LINE
  8
0
 62
     0
 10
255.032
 20
54.7176
 30
0.0
 11
269.032
 21
54.7176
 31
0.0
  0
LINE
  8
0
 62
     0
 10
269.032
 20
54.7176
 30
0.0
 11
269.032
 21
40.7183
 31
0.0
  0
LINE
  8
0
 62
     0
 10
269.032
 20
40.7183
 30
0.0
 11
255.032
 21
40.7183
 31
0.0
  0
LINE
  8
0
 62
     0
 10
255.032
 20
40.7183
 30
0.0
 11
255.032
 21
54.7176
 31
0.0
  0
LINE
  8
0
 62
     0
 10
274.082
 20
54.7176
 30
0.0
 11
288.082
 21
54.7176
 31
0.0
  0
LINE
  8
0
 62
     0
 10
288.082
 20
54.7176
 30
0.0
 11
288.082
 21
40.7183
 31
0.0
  0
LINE
  8
0
 62
     0
 10
288.082
 20
40.7183
 30
0.0
 11
274.082
 21
40.7183
 31
0.0
  0
LINE
  8
0
 62
     0
 10
274.082
 20
40.7183
 30
0.0
 11
274.082
 21
54.7176
 31
0.0
  0
LINE
  8
0
 62
     0
 10
293.132
 20
54.7176
 30
0.0
 11
307.132
 21
54.7176
 31
0.0
  0
LINE
  8
0
 62
     0
 10
307.132
 20
54.7176
 30
0.0
 11
307.132
 21
40.7183
 31
0.0
  0
LINE
  8
0
 62
     0
 10
307.132
 20
40.7183
 30
0.0
 11
293.132
 21
40.7183
 31
0.0
  0
LINE
  8
0
 62
     0
 10
293.132
 20
40.7183
 30
0.0
 11
293.132
 21
54.7176
 31
0.0
  0
LINE
  8
0
 62
     0
 10
312.182
 20
54.7176
 30
0.0
 11
326.182
 21
54.7176
 31
0.0
  0
LINE
  8
0
 62
     0
 10
326.182
 20
54.7176
 30
0.0
 11
326.182
 21
40.7183
 31
0.0
  0
LINE
  8
0
 62
     0
 10
326.182
 20
40.7183
 30
0.0
 11
312.182
 21
40.7183
 31
0.0
  0
LINE
  8
0
 62
     0
 10
312.182
 20
40.7183
 30
0.0
 11
312.182
 21
54.7176
 31
0.0
  0
LINE
  8
0
 62
     0
 10
7.38216
 20
73.7676
 30
0.0
 11
21.3817
 21
73.7676
 31
0.0
  0
LINE
  8
0
 62
     0
 10
21.3817
 20
73.7676
 30
0.0
 11
21.3817
 21
59.7683
 31
0.0
  0
LINE
  8
0
 62
     0
 10
21.3817
 20
59.7683
 30
0.0
 11
7.38216
 21
59.7683
 31
0.0
  0
LINE
  8
0
 62
     0
 10
7.38216
 20
59.7683
 30
0.0
 11
7.38216
 21
73.7676
 31
0.0
  0
LINE
  8
0
 62
     0
 10
31.1947
 20
73.7676
 30
0.0
 11
45.194
 21
73.7676
 31
0.0
  0
LINE
  8
0
 62
     0
 10
45.194
 20
73.7676
 30
0.0
 11
45.194
 21
59.7683
 31
0.0
  0
LINE
  8
0
 62
     0
 10
45.194
 20
59.7683
 30
0.0
 11
31.1947
 21
59.7683
 31
0.0
  0
LINE
  8
0
 62
     0
 10
31.1947
 20
59.7683
 30
0.0
 11
31.1947
 21
73.7676
 31
0.0
  0
LINE
  8
0
 62
     0
 10
50.2447
 20
73.7676
 30
0.0
 11
64.244
 21
73.7676
 31
0.0
  0
LINE
  8
0
 62
     0
 10
64.244
 20
73.7676
 30
0.0
 11
64.244
 21
59.7683
 31
0.0
  0
LINE
  8
0
 62
     0
 10
64.244
 20
59.7683
 30
0.0
 11
50.2447
 21
59.7683
 31
0.0
  0
LINE
  8
0
 62
     0
 10
50.2447
 20
59.7683
 30
0.0
 11
50.2447
 21
73.7676
 31
0.0
  0
LINE
  8
0
 62
     0
 10
69.2947
 20
73.7676
 30
0.0
 11
83.294
 21
73.7676
 31
0.0
  0
LINE
  8
0
 62
     0
 10
83.294
 20
73.7676
 30
0.0
 11
83.294
 21
59.7683
 31
0.0
  0
LINE
  8
0
 62
     0
 10
83.294
 20
59.7683
 30
0.0
 11
69.2947
 21
59.7683
 31
0.0
  0
LINE
  8
0
 62
     0
 10
69.2947
 20
59.7683
 30
0.0
 11
69.2947
 21
73.7676
 31
0.0
  0
LINE
  8
0
 62
     0
 10
88.3447
 20
73.7676
 30
0.0
 11
102.344
 21
73.7676
 31
0.0
  0
LINE
  8
0
 62
     0
 10
102.344
 20
73.7676
 30
0.0
 11
102.344
 21
59.7683
 31
0.0
  0
LINE
  8
0
 62
     0
 10
102.344
 20
59.7683
 30
0.0
 11
88.3447
 21
59.7683
 31
0.0
  0
LINE
  8
0
 62
     0
 10
88.3447
 20
59.7683
 30
0.0
 11
88.3447
 21
73.7676
 31
0.0
  0
LINE
  8
0
 62
     0
 10
107.395
 20
73.7676
 30
0.0
 11
121.394
 21
73.7676
 31
0.0
  0
LINE
  8
0
 62
     0
 10
121.394
 20
73.7676
 30
0.0
 11
121.394
 21
59.7683
 31
0.0
  0
LINE
  8
0
 62
     0
 10
121.394
 20
59.7683
 30
0.0
 11
107.395
 21
59.7683
 31
0.0
  0
LINE
  8
0
 62
     0
 10
107.395
 20
59.7683
 30
0.0
 11
107.395
 21
73.7676
 31
0.0
  0
LINE
  8
0
 62
     0
 10
126.445
 20
73.7676
 30
0.0
 11
140.444
 21
73.7676
 31
0.0
  0
LINE
  8
0
 62
     0
 10
140.444
 20
73.7676
 30
0.0
 11
140.444
 21
59.7683
 31
0.0
  0
LINE
  8
0
 62
     0
 10
140.444
 20
59.7683
 30
0.0
 11
126.445
 21
59.7683
 31
0.0
  0
LINE
  8
0
 62
     0
 10
126.445
 20
59.7683
 30
0.0
 11
126.445
 21
73.7676
 31
0.0
  0
LINE
  8
0
 62
     0
 10
178.832
 20
73.7676
 30
0.0
 11
192.832
 21
73.7676
 31
0.0
  0
LINE
  8
0
 62
     0
 10
192.832
 20
73.7676
 30
0.0
 11
192.832
 21
59.7683
 31
0.0
  0
LINE
  8
0
 62
     0
 10
192.832
 20
59.7683
 30
0.0
 11
178.832
 21
59.7683
 31
0.0
  0
LINE
  8
0
 62
     0
 10
178.832
 20
59.7683
 30
0.0
 11
178.832
 21
73.7676
 31
0.0
  0
LINE
  8
0
 62
     0
 10
197.882
 20
73.7676
 30
0.0
 11
211.882
 21
73.7676
 31
0.0
  0
LINE
  8
0
 62
     0
 10
211.882
 20
73.7676
 30
0.0
 11
211.882
 21
59.7683
 31
0.0
  0
LINE
  8
0
 62
     0
 10
211.882
 20
59.7683
 30
0.0
 11
197.882
 21
59.7683
 31
0.0
  0
LINE
  8
0
 62
     0
 10
197.882
 20
59.7683
 30
0.0
 11
197.882
 21
73.7676
 31
0.0
  0
LINE
  8
0
 62
     0
 10
216.932
 20
73.7676
 30
0.0
 11
230.932
 21
73.7676
 31
0.0
  0
LINE
  8
0
 62
     0
 10
230.932
 20
73.7676
 30
0.0
 11
230.932
 21
59.7683
 31
0.0
  0
LINE
  8
0
 62
     0
 10
230.932
 20
59.7683
 30
0.0
 11
216.932
 21
59.7683
 31
0.0
  0
LINE
  8
0
 62
     0
 10
216.932
 20
59.7683
 30
0.0
 11
216.932
 21
73.7676
 31
0.0
  0
LINE
  8
0
 62
     0
 10
235.982
 20
73.7676
 30
0.0
 11
249.982
 21
73.7676
 31
0.0
  0
LINE
  8
0
 62
     0
 10
249.982
 20
73.7676
 30
0.0
 11
249.982
 21
59.7683
 31
0.0
  0
LINE
  8
0
 62
     0
 10
249.982
 20
59.7683
 30
0.0
 11
235.982
 21
59.7683
 31
0.0
  0
LINE
  8
0
 62
     0
 10
235.982
 20
59.7683
 30
0.0
 11
235.982
 21
73.7676
 31
0.0
  0
LINE
  8
0
 62
     0
 10
255.032
 20
73.7676
 30
0.0
 11
269.032
 21
73.7676
 31
0.0
  0
LINE
  8
0
 62
     0
 10
269.032
 20
73.7676
 30
0.0
 11
269.032
 21
59.7683
 31
0.0
  0
LINE
  8
0
 62
     0
 10
269.032
 20
59.7683
 30
0.0
 11
255.032
 21
59.7683
 31
0.0
  0
LINE
  8
0
 62
     0
 10
255.032
 20
59.7683
 30
0.0
 11
255.032
 21
73.7676
 31
0.0
  0
LINE
  8
0
 62
     0
 10
274.082
 20
73.7676
 30
0.0
 11
288.082
 21
73.7676
 31
0.0
  0
LINE
  8
0
 62
     0
 10
288.082
 20
73.7676
 30
0.0
 11
288.082
 21
59.7683
 31
0.0
  0
LINE
  8
0
 62
     0
 10
288.082
 20
59.7683
 30
0.0
 11
274.082
 21
59.7683
 31
0.0
  0
LINE
  8
0
 62
     0
 10
274.082
 20
59.7683
 30
0.0
 11
274.082
 21
73.7676
 31
0.0
  0
LINE
  8
0
 62
     0
 10
293.132
 20
73.7676
 30
0.0
 11
307.132
 21
73.7676
 31
0.0
  0
LINE
  8
0
 62
     0
 10
307.132
 20
73.7676
 30
0.0
 11
307.132
 21
59.7683
 31
0.0
  0
LINE
  8
0
 62
     0
 10
307.132
 20
59.7683
 30
0.0
 11
293.132
 21
59.7683
 31
0.0
  0
LINE
  8
0
 62
     0
 10
293.132
 20
59.7683
 30
0.0
 11
293.132
 21
73.7676
 31
0.0
  0
LINE
  8
0
 62
     0
 10
312.182
 20
73.7676
 30
0.0
 11
326.182
 21
73.7676
 31
0.0
  0
LINE
  8
0
 62
     0
 10
326.182
 20
73.7676
 30
0.0
 11
326.182
 21
59.7683
 31
0.0
  0
LINE
  8
0
 62
     0
 10
326.182
 20
59.7683
 30
0.0
 11
312.182
 21
59.7683
 31
0.0
  0
LINE
  8
0
 62
     0
 10
312.182
 20
59.7683
 30
0.0
 11
312.182
 21
73.7676
 31
0.0
  0
LINE
  8
0
 62
     0
 10
7.38216
 20
92.8176
 30
0.0
 11
21.3817
 21
92.8176
 31
0.0
  0
LINE
  8
0
 62
     0
 10
21.3817
 20
92.8176
 30
0.0
 11
21.3817
 21
78.8183
 31
0.0
  0
LINE
  8
0
 62
     0
 10
21.3817
 20
78.8183
 30
0.0
 11
7.38216
 21
78.8183
 31
0.0
  0
LINE
  8
0
 62
     0
 10
7.38216
 20
78.8183
 30
0.0
 11
7.38216
 21
92.8176
 31
0.0
  0
LINE
  8
0
 62
     0
 10
31.1947
 20
92.8176
 30
0.0
 11
45.194
 21
92.8176
 31
0.0
  0
LINE
  8
0
 62
     0
 10
45.194
 20
92.8176
 30
0.0
 11
45.194
 21
78.8183
 31
0.0
  0
LINE
  8
0
 62
     0
 10
45.194
 20
78.8183
 30
0.0
 11
31.1947
 21
78.8183
 31
0.0
  0
LINE
  8
0
 62
     0
 10
31.1947
 20
78.8183
 30
0.0
 11
31.1947
 21
92.8176
 31
0.0
  0
LINE
  8
0
 62
     0
 10
50.2447
 20
92.8176
 30
0.0
 11
64.244
 21
92.8176
 31
0.0
  0
LINE
  8
0
 62
     0
 10
64.244
 20
92.8176
 30
0.0
 11
64.244
 21
78.8183
 31
0.0
  0
LINE
  8
0
 62
     0
 10
64.244
 20
78.8183
 30
0.0
 11
50.2447
 21
78.8183
 31
0.0
  0
LINE
  8
0
 62
     0
 10
50.2447
 20
78.8183
 30
0.0
 11
50.2447
 21
92.8176
 31
0.0
  0
LINE
  8
0
 62
     0
 10
69.2947
 20
92.8176
 30
0.0
 11
83.294
 21
92.8176
 31
0.0
  0
LINE
  8
0
 62
     0
 10
83.294
 20
92.8176
 30
0.0
 11
83.294
 21
78.8183
 31
0.0
  0
LINE
  8
0
 62
     0
 10
83.294
 20
78.8183
 30
0.0
 11
69.2947
 21
78.8183
 31
0.0
  0
LINE
  8
0
 62
     0
 10
69.2947
 20
78.8183
 30
0.0
 11
69.2947
 21
92.8176
 31
0.0
  0
LINE
  8
0
 62
     0
 10
88.3447
 20
92.8176
 30
0.0
 11
102.344
 21
92.8176
 31
0.0
  0
LINE
  8
0
 62
     0
 10
102.344
 20
92.8176
 30
0.0
 11
102.344
 21
78.8183
 31
0.0
  0
LINE
  8
0
 62
     0
 10
102.344
 20
78.8183
 30
0.0
 11
88.3447
 21
78.8183
 31
0.0
  0
LINE
  8
0
 62
     0
 10
88.3447
 20
78.8183
 30
0.0
 11
88.3447
 21
92.8176
 31
0.0
  0
LINE
  8
0
 62
     0
 10
107.395
 20
92.8176
 30
0.0
 11
121.394
 21
92.8176
 31
0.0
  0
LINE
  8
0
 62
     0
 10
121.394
 20
92.8176
 30
0.0
 11
121.394
 21
78.8183
 31
0.0
  0
LINE
  8
0
 62
     0
 10
121.394
 20
78.8183
 30
0.0
 11
107.395
 21
78.8183
 31
0.0
  0
LINE
  8
0
 62
     0
 10
107.395
 20
78.8183
 30
0.0
 11
107.395
 21
92.8176
 31
0.0
  0
LINE
  8
0
 62
     0
 10
126.445
 20
92.8176
 30
0.0
 11
140.444
 21
92.8176
 31
0.0
  0
LINE
  8
0
 62
     0
 10
140.444
 20
92.8176
 30
0.0
 11
140.444
 21
78.8183
 31
0.0
  0
LINE
  8
0
 62
     0
 10
140.444
 20
78.8183
 30
0.0
 11
126.445
 21
78.8183
 31
0.0
  0
LINE
  8
0
 62
     0
 10
126.445
 20
78.8183
 30
0.0
 11
126.445
 21
92.8176
 31
0.0
  0
LINE
  8
0
 62
     0
 10
178.832
 20
92.8176
 30
0.0
 11
192.832
 21
92.8176
 31
0.0
  0
LINE
  8
0
 62
     0
 10
192.832
 20
92.8176
 30
0.0
 11
192.832
 21
78.8183
 31
0.0
  0
LINE
  8
0
 62
     0
 10
192.832
 20
78.8183
 30
0.0
 11
178.832
 21
78.8183
 31
0.0
  0
LINE
  8
0
 62
     0
 10
178.832
 20
78.8183
 30
0.0
 11
178.832
 21
92.8176
 31
0.0
  0
LINE
  8
0
 62
     0
 10
197.882
 20
92.8176
 30
0.0
 11
211.882
 21
92.8176
 31
0.0
  0
LINE
  8
0
 62
     0
 10
211.882
 20
92.8176
 30
0.0
 11
211.882
 21
78.8183
 31
0.0
  0
LINE
  8
0
 62
     0
 10
211.882
 20
78.8183
 30
0.0
 11
197.882
 21
78.8183
 31
0.0
  0
LINE
  8
0
 62
     0
 10
197.882
 20
78.8183
 30
0.0
 11
197.882
 21
92.8176
 31
0.0
  0
LINE
  8
0
 62
     0
 10
216.932
 20
92.8176
 30
0.0
 11
230.932
 21
92.8176
 31
0.0
  0
LINE
  8
0
 62
     0
 10
230.932
 20
92.8176
 30
0.0
 11
230.932
 21
78.8183
 31
0.0
  0
LINE
  8
0
 62
     0
 10
230.932
 20
78.8183
 30
0.0
 11
216.932
 21
78.8183
 31
0.0
  0
LINE
  8
0
 62
     0
 10
216.932
 20
78.8183
 30
0.0
 11
216.932
 21
92.8176
 31
0.0
  0
LINE
  8
0
 62
     0
 10
235.982
 20
92.8176
 30
0.0
 11
249.982
 21
92.8176
 31
0.0
  0
LINE
  8
0
 62
     0
 10
249.982
 20
92.8176
 30
0.0
 11
249.982
 21
78.8183
 31
0.0
  0
LINE
  8
0
 62
     0
 10
249.982
 20
78.8183
 30
0.0
 11
235.982
 21
78.8183
 31
0.0
  0
LINE
  8
0
 62
     0
 10
235.982
 20
78.8183
 30
0.0
 11
235.982
 21
92.8176
 31
0.0
  0
LINE
  8
0
 62
     0
 10
255.032
 20
92.8176
 30
0.0
 11
269.032
 21
92.8176
 31
0.0
  0
LINE
  8
0
 62
     0
 10
269.032
 20
92.8176
 30
0.0
 11
269.032
 21
78.8183
 31
0.0
  0
LINE
  8
0
 62
     0
 10
269.032
 20
78.8183
 30
0.0
 11
255.032
 21
78.8183
 31
0.0
  0
LINE
  8
0
 62
     0
 10
255.032
 20
78.8183
 30
0.0
 11
255.032
 21
92.8176
 31
0.0
  0
LINE
  8
0
 62
     0
 10
274.082
 20
92.8176
 30
0.0
 11
288.082
 21
92.8176
 31
0.0
  0
LINE
  8
0
 62
     0
 10
288.082
 20
92.8176
 30
0.0
 11
288.082
 21
78.8183
 31
0.0
  0
LINE
  8
0
 62
     0
 10
288.082
 20
78.8183
 30
0.0
 11
274.082
 21
78.8183
 31
0.0
  0
LINE
  8
0
 62
     0
 10
274.082
 20
78.8183
 30
0.0
 11
274.082
 21
92.8176
 31
0.0
  0
LINE
  8
0
 62
     0
 10
302.657
 20
92.8176
 30
0.0
 11
316.657
 21
92.8176
 31
0.0
  0
LINE
  8
0
 62
     0
 10
316.657
 20
92.8176
 30
0.0
 11
316.657
 21
78.8183
 31
0.0
  0
LINE
  8
0
 62
     0
 10
316.657
 20
78.8183
 30
0.0
 11
302.657
 21
78.8183
 31
0.0
  0
LINE
  8
0
 62
     0
 10
302.657
 20
78.8183
 30
0.0
 11
302.657
 21
92.8176
 31
0.0
  0
ENDSEC
  0
EOF
